<svg width="131" height="124" viewBox="0 0 131 124" fill="none" xmlns="http://www.w3.org/2000/svg">
<path d="M113.257 79.9553C114.69 78.4628 115.924 76.7837 116.848 74.9018C117.341 73.9012 117.755 72.8724 118.086 71.8199C119.219 69.5979 119.937 67.1665 120.181 64.6591C120.262 63.821 120.292 62.9889 120.274 62.1539C120.277 62.024 120.289 61.8993 120.292 61.7694C120.308 60.314 120.157 58.8574 119.883 57.4256C119.43 55.042 118.194 52.642 117.137 50.5133C116.26 48.8349 115.371 47.1557 114.477 45.4855C113.755 44.3812 112.948 43.3413 112.053 42.3702C110.54 40.6474 108.843 39.1176 106.909 37.8936C101.221 33.8685 93.9955 33.0807 87.2743 34.6172C84.2583 35.3093 81.3547 36.2756 78.5274 37.5371C77.9844 37.7796 77.4459 38.0247 76.9093 38.277C76.8754 38.1378 76.8415 37.9986 76.812 37.8621C76.9054 37.617 76.9178 37.5226 76.8797 37.2136C76.7015 36.6264 76.5348 36.0399 76.3779 35.4471C76.1767 34.733 75.9923 34.0107 75.8194 33.2891C74.1854 27.1081 71.8961 20.4891 67.3065 15.8124C66.1553 14.6395 64.8831 13.5822 63.5056 12.6972C61.4749 11.2139 59.2466 10.2084 56.7859 9.63671C53.6398 8.90843 50.5946 9.01572 47.4224 9.42636C45.0813 9.7309 42.6461 10.3757 40.424 11.2033C38.1425 12.0505 36.098 13.154 34.36 14.883C34.2637 14.9769 34.767 15.6262 34.7844 15.6063C35.9708 14.5515 37.1763 13.6929 38.5692 12.9366C39.1058 12.6844 39.6526 12.456 40.1917 12.2411C39.2768 12.6695 38.3952 13.165 37.5335 13.7616C37.456 13.8125 37.4339 13.9134 37.4395 14.0182C37.2064 14.1407 36.9733 14.2633 36.7511 14.3981C35.4697 15.159 34.3978 16.0468 33.4423 17.0975C33.3596 17.1574 33.2744 17.2217 33.1917 17.2816C31.9745 18.2231 30.8925 19.2845 30.0327 20.5758C29.7681 21.0029 29.5034 21.4301 29.2388 21.8572C29.1571 22.0612 29.0799 22.2678 29.0073 22.4769C28.8598 22.6907 28.7239 22.9053 28.6016 23.1276C28.5466 23.1915 28.4916 23.2555 28.4341 23.3239C27.6879 24.2622 27.1184 25.2069 26.6738 26.2477C26.3211 26.8691 26.0186 27.5076 25.769 28.1587C25.7638 28.1677 25.7606 28.1838 25.7599 28.1953C25.2196 29.0791 24.7784 30.0203 24.4437 31.0168C24.3011 31.347 24.1766 31.6877 24.0637 32.0291C23.0478 34.0075 22.5959 36.2278 22.4645 38.5077C22.195 43.2249 23.4267 47.8941 25.1609 52.2555C26.7976 56.3693 28.8319 60.336 31.0729 64.1529C33.7577 68.7223 36.8656 72.986 40.0206 77.2409C40.3668 77.7039 41.0947 77.2452 40.809 76.8651C38.0284 73.1491 35.2943 69.4361 32.8342 65.4986L30.8378 62.2474C29.7212 60.1499 28.6091 58.0549 27.4951 55.9529C26.7878 54.3965 26.156 52.7822 25.6243 51.13C25.9934 52.1263 26.3934 53.1106 26.818 54.0732C28.212 57.2218 29.8404 60.2247 31.6477 63.1574C34.7168 68.1341 37.9571 72.9705 41.4332 77.6799C41.5587 77.848 42.3611 77.5519 42.1031 77.2176L39.1847 73.3862C37.5351 71.3576 36.0502 69.2208 34.7132 66.9841C36.6296 69.8423 38.6616 72.6358 40.7253 75.4057C40.8681 75.5958 41.0662 75.5966 41.2205 75.5063C41.4387 75.8056 41.6639 76.1031 41.882 76.4024C42.1549 76.7632 42.9047 76.3292 42.5559 75.8707C42.1769 75.3709 41.7959 74.8639 41.4195 74.3596C41.4266 74.3577 41.4408 74.354 41.4479 74.3521C41.6622 74.6372 41.8739 74.9269 42.0927 75.2146C42.3134 75.5095 42.671 75.3692 42.8283 75.1072C43.0966 75.4654 43.3605 75.821 43.6314 76.1748C43.9692 76.6209 44.6738 76.2445 44.3514 75.8132C43.6409 74.8769 42.9376 73.9387 42.2368 72.996C42.2659 72.9769 42.2905 72.9552 42.3131 72.9264C42.5833 73.2917 42.8581 73.6596 43.1284 74.0249C43.4701 74.4852 44.2819 74.0272 43.9485 73.5836C43.7362 73.3056 43.5264 73.023 43.3211 72.7431C43.6223 72.7735 43.9645 72.6183 43.7348 72.3183C40.5674 68.1159 37.4808 63.8885 34.7404 59.3946C33.7518 57.8253 32.8285 56.216 31.9703 54.5667C30.9487 52.7212 30.0756 50.8061 29.3601 48.8265C28.3641 46.3741 27.4432 43.8335 26.9552 41.22C26.8516 39.7431 26.8815 38.2537 27.1242 36.7915C27.3431 38.4126 27.6787 40.0294 28.0691 41.6658C28.0896 41.7554 28.1849 41.8821 28.2834 41.9928C28.5893 43.2755 28.9611 44.5484 29.3761 45.7985C32.6278 55.574 38.7086 64.137 44.8108 72.3297C44.9235 72.4784 45.7519 72.7415 45.5048 72.4194C41.9217 67.708 38.4154 62.9573 35.4001 57.8562C34.2123 55.861 33.111 53.8202 32.1034 51.7318C31.0333 49.6371 30.2226 47.4471 29.6573 45.1656C27.9752 41.193 27.6037 37.0444 28.5009 32.7195C28.5599 32.8672 28.619 33.0149 28.6046 33.144C28.622 32.8013 28.6626 32.4601 28.7078 32.1215C28.9428 31.6832 29.1926 31.2713 29.4669 30.8796C29.4528 31.1226 29.4472 31.3825 29.5004 31.2278C29.5977 30.9551 29.6995 30.6851 29.8038 30.4105C30.5153 29.47 31.3381 28.6178 32.2623 27.7463C32.526 27.4979 31.7661 27.7827 31.7054 27.8254C31.4283 28.0241 31.1582 28.2209 30.8927 28.4204C30.8772 28.4055 30.8644 28.3861 30.8509 28.3783C30.8328 28.3679 30.807 28.3709 30.7864 28.365C31.912 27.3946 33.1587 26.5479 34.4775 25.7428C34.4704 25.7447 34.4614 25.7395 34.4543 25.7414C33.8511 25.7757 33.4382 25.7825 33.0846 25.8115C34.1697 25.0988 35.3038 24.468 36.41 23.875C36.6457 23.748 36.3151 23.5811 36.2028 23.588C36.1841 23.5892 36.1654 23.5903 36.1467 23.5915C37.0947 23.0746 38.0729 22.599 39.0724 22.1596C39.1441 22.1293 39.389 21.9239 39.1476 21.946C38.6766 21.9909 38.185 22.0299 37.6907 22.0734C38.053 21.8939 38.4101 21.7234 38.7781 21.5652C39.0911 21.4709 39.4061 21.3837 39.7275 21.3062C39.8534 21.2653 39.7619 21.2364 39.609 21.2198C40.8033 20.7555 42.033 20.3653 43.3085 19.9896C43.3866 19.9689 43.5197 19.8843 43.6456 19.8016C44.0096 19.7128 44.3711 19.6285 44.737 19.5468C44.8293 19.5224 45.0645 19.3234 44.8329 19.3391C44.1548 19.3781 43.4715 19.426 42.7921 19.4882C42.5933 19.499 42.3901 19.5072 42.1914 19.518C42.2283 19.4437 42.2103 19.3915 42.0826 19.4253C41.8676 19.4746 41.6553 19.5194 41.4359 19.5661C41.0733 19.59 40.7126 19.6209 40.3519 19.6518C41.277 19.3309 42.2207 19.0507 43.1733 18.8174C45.6078 18.226 48.0171 18.0326 50.524 18.045C50.6685 18.0447 51.2495 17.8301 51.2218 17.8261C50.2409 17.6185 49.2606 17.483 48.2673 17.4117C50.8753 17.1657 53.4391 17.4441 55.9562 18.2516C56.1993 18.3202 56.5559 18.0358 56.7867 18.1153C55.9048 17.8094 55.0163 17.5356 54.1187 17.2984C53.6991 17.1398 53.2858 16.9909 52.879 16.8517C53.7582 16.9228 54.6321 17.0447 55.502 17.236C55.7374 17.2763 56.075 16.8374 56.2594 16.8721C54.7072 16.55 53.1679 16.2472 51.5836 16.1576C53.0862 16.1282 54.5923 16.2385 56.0846 16.5082C57.9115 17.6047 59.7409 18.6968 61.5677 19.7934C62.7096 20.8473 63.6911 22.0537 64.5757 23.3238C67.3468 27.2853 68.9863 31.9149 70.1233 36.5713C70.5535 38.3263 71.064 40.2653 71.0599 42.0745C71.0661 42.5325 71.0563 42.9872 71.0277 43.443C71.036 43.4598 71.0328 43.4759 71.034 43.4945C70.9558 43.557 70.8777 43.6195 70.793 43.6723C70.7127 43.8531 70.6994 44.0428 70.7462 44.2431C70.7479 44.3338 70.7884 44.3991 70.8483 44.4516C70.7934 44.5155 70.7384 44.5795 70.6609 44.6304C70.6286 44.6655 70.5989 44.6962 70.5736 44.7294C70.4591 43.8861 70.3046 43.0495 70.11 42.2197C70.0691 42.0406 69.4255 41.8843 69.4147 41.7884C69.6301 43.2281 70.0933 44.9364 69.7093 46.3828C69.2882 46.6121 69.2998 46.6128 69.0465 47.2079C68.9979 47.3233 69.0312 47.4323 69.1207 47.5377C69.1025 47.6109 69.0798 47.6815 69.059 47.7592C68.7472 47.8722 68.6547 47.9802 68.452 48.3834C68.307 48.6763 68.6224 49.0258 69.029 49.2904C68.9082 49.3642 68.7894 49.4451 68.6731 49.5214C68.5744 49.4944 68.4784 49.4628 68.3842 49.4384C68.2378 49.4315 68.1203 49.4892 68.0297 49.6044C67.9786 49.6825 67.9249 49.7651 67.8738 49.8432C67.7664 50.0084 67.8266 50.2584 67.97 50.5205C67.7956 50.6351 67.6109 50.7258 67.4031 50.7732C67.4809 50.8779 67.5588 50.9827 67.6321 51.0848C67.5747 51.1114 67.5262 51.1432 67.461 51.1833C67.4761 51.4072 67.4976 51.5991 67.5289 51.7845C67.3429 51.8983 67.1589 51.9775 66.9924 51.9949C67.0008 52.0117 67.0091 52.0285 67.02 52.0408C66.9445 52.057 66.8696 52.1034 66.7965 52.1987C66.6103 52.438 66.7179 53.1996 66.8921 53.5334C66.5492 53.7002 66.2128 53.8766 65.8853 54.0583C65.4255 54.313 65.636 54.9068 65.7281 55.3307C65.7844 55.6083 65.8358 56.0087 66.0251 56.2435C65.9812 56.2361 66.034 56.2905 66.1854 56.4138C66.2363 56.4193 66.2899 56.4203 66.3408 56.4258C66.357 56.4292 66.3705 56.437 66.3892 56.4358C66.3847 56.4332 66.3802 56.4306 66.3757 56.428C66.4686 56.4338 66.5634 56.4467 66.6517 56.4499C66.7298 56.4292 66.8209 56.3861 66.9171 56.334C67.0071 56.5115 67.1294 56.6539 67.2635 56.6716C67.7582 56.7419 68.0625 56.517 68.463 56.24C70.1076 55.1208 71.745 54.0453 73.4777 53.0547C73.5598 53.0064 73.5691 52.8444 73.4659 52.8147C73.3744 52.7858 73.2718 52.7863 73.166 52.803C73.7124 52.4608 74.2614 52.1141 74.8162 51.7886C74.9053 51.7385 74.8969 51.7217 74.8059 51.7648C74.2506 52.0182 73.7043 52.2767 73.1555 52.5398C74.4568 51.7964 75.7832 51.1033 77.1231 50.4181C77.3537 50.3001 77.034 50.1454 76.9262 50.1549C76.4713 50.2032 76.1364 50.2311 75.8409 50.2637C77.5018 49.4289 79.1979 48.6684 80.9339 47.9846C81.0366 47.9422 81.0136 47.8153 80.8988 47.8268C80.4987 47.8529 80.1058 47.8772 79.7103 47.9059C81.0235 47.3607 82.3508 46.8535 83.7045 46.4153C83.7187 46.4116 84.3063 46.123 83.9643 46.1528C83.3952 46.2009 82.8307 46.2516 82.268 46.3094C82.6643 46.1855 83.0626 46.0686 83.4628 45.9589C83.6997 45.8924 83.4226 45.7264 83.32 45.727C83.2594 45.7278 83.1987 45.7287 83.1407 45.7251C84.4117 45.305 85.7078 44.9352 87.0347 44.6371C87.0631 44.6296 87.1135 44.6048 87.1736 44.5737C87.2536 44.5601 87.3362 44.5421 87.4188 44.524C87.7299 44.4644 87.9867 44.0925 87.5183 44.0912C87.4157 44.0917 87.3106 44.0968 87.208 44.0974C87.5552 44.0168 87.9025 43.9363 88.2561 43.8654C88.5059 43.8183 88.7047 43.401 88.9325 43.3711C87.4109 43.5688 85.8493 43.7733 84.3127 44.07C84.5922 43.9922 84.8743 43.9099 85.1557 43.8392C88.1556 43.1019 91.0526 42.8971 94.1507 43.1253C94.341 43.1395 94.8897 42.96 94.9335 42.9674C93.836 42.7224 92.7642 42.5161 91.6884 42.3793C91.749 42.3784 91.8077 42.3705 91.8684 42.3696C94.5851 42.2999 96.5909 42.597 99.3124 43.4149C99.5071 43.4735 100.029 43.2668 100.098 43.2943C98.8909 42.8427 97.6815 42.4374 96.4512 42.1097C96.1888 42.012 95.9309 41.917 95.6705 41.8264C96.7786 41.9281 97.8821 42.1107 98.9679 42.3969C101.753 43.1258 104.259 44.4529 106.459 46.1837C106.816 46.5451 107.156 46.9148 107.483 47.2953C109.35 49.4791 110.938 51.8965 112.191 54.4857C113.924 58.0689 115.288 61.8939 114.699 66.0081C114.5 67.4056 114.136 68.7441 113.633 70.0321C113.392 70.5328 113.122 71.0107 112.843 71.4834C112.834 71.3644 112.823 71.2685 112.823 71.2569C112.752 71.4847 112.663 71.7022 112.575 71.9267C112.204 72.5074 111.801 73.07 111.371 73.6053C110.629 74.2767 109.849 74.9087 109.033 75.4896C106.93 76.9844 104.643 78.0611 102.279 79.0821C102.48 78.9947 102.87 79.0585 103.094 79.0144C103.825 78.8742 104.554 78.7153 105.28 78.5306C104.883 78.7498 104.475 78.9566 104.067 79.1634C102.939 79.6482 101.786 80.0826 100.618 80.479C100.478 80.4934 100.346 80.5131 100.205 80.5276C100.063 80.607 99.9194 80.6793 99.7747 80.7632C99.0434 80.9986 98.3075 81.2314 97.5678 81.4501C97.4374 81.4884 97.477 81.6906 97.5259 81.7727C96.7732 82.0137 96.0186 82.2477 95.2673 82.4656C95.0207 82.5385 95.023 82.7012 95.3121 82.6589C95.4179 82.6423 95.5212 82.6301 95.627 82.6135C93.5509 83.3341 91.4153 83.7932 89.2119 83.9739C87.3309 84.2212 85.4365 84.3771 83.5378 84.4468C83.4114 84.4575 83.2785 84.4585 83.3233 84.6099C83.3579 84.7375 83.8283 84.7042 83.9121 84.7047C84.7946 84.718 85.6984 84.7256 86.6093 84.7314C84.7658 84.9346 82.9141 85.0792 81.074 85.1827C81.0133 85.1835 80.9378 85.1997 80.8597 85.2204C73.7263 85.3769 66.5745 84.7215 59.4528 83.7846C59.2284 83.7567 58.787 83.8128 58.6554 83.7906C66.7332 85.0404 74.8798 86.0667 83.0456 86.1536C72.5011 86.8219 61.9223 85.4974 51.5012 83.7019C50.1791 83.4707 48.8552 83.2325 47.5338 82.9897C47.4944 82.9849 47.4596 82.9828 47.4273 82.9761C46.9914 82.8978 46.5554 82.8195 46.1266 82.7393C45.6306 82.6503 45.2907 83.2911 45.8305 83.3875C46.1949 83.4544 46.5593 83.5212 46.9262 83.5836C46.9517 83.7478 47.0217 83.9078 47.1649 83.9307C49.7593 84.4062 52.3473 84.872 54.9412 85.3173C51.6056 84.8025 48.2766 84.2138 44.9605 83.6027C44.2595 83.473 44.3657 84.6224 44.8778 84.7148C45.2744 84.7883 45.671 84.8619 46.0702 84.9309C46.0475 85.0015 46.0364 85.0728 46.0272 85.1512C45.755 85.1017 45.49 85.0503 45.2178 85.0008C44.8812 84.938 44.7575 85.1835 44.7531 85.5038C44.3635 85.4283 43.976 85.36 43.5864 85.2846C43.3465 85.2418 43.2463 85.3633 43.2305 85.5574C42.7416 85.4665 42.2528 85.3756 41.7685 85.2873C41.5563 85.2485 40.9281 85.8365 41.237 85.8953C41.9703 86.0316 42.699 86.1654 43.4278 86.2991C43.4297 86.3062 43.4316 86.3133 43.4361 86.3159C43.1066 86.2512 42.7745 86.191 42.4423 86.1308C41.8845 86.0239 41.883 86.4536 42.0732 86.8743C41.6282 86.7908 41.1878 86.7098 40.7428 86.6263C40.5538 86.589 40.2861 86.9486 40.2974 87.1165C40.3124 87.3405 40.6352 87.5627 40.8287 87.6026C41.322 87.6962 41.8225 87.7878 42.3158 87.8813C42.3261 87.9052 42.3364 87.929 42.3492 87.9484C41.8997 87.8623 41.4548 87.7788 41.0053 87.6926C40.6964 87.6339 40.4945 87.9418 40.5979 88.2108C40.6242 88.2798 40.6757 88.3573 40.7432 88.4382C40.4343 88.3794 40.1254 88.3207 39.8165 88.2619C39.5192 88.2039 39.4152 88.6341 39.4761 88.8307C39.5711 89.1246 40.188 89.3792 40.4891 89.4514C40.5849 89.6083 40.7807 89.7692 41.0146 89.9162C40.4291 89.8054 39.848 89.6971 39.2625 89.5862C38.9697 89.5308 38.5722 89.5524 38.6295 89.9741C38.6607 90.2014 38.9494 90.3681 39.2459 90.4795C39.2097 90.5423 39.1979 90.6252 39.2216 90.7405C39.2395 90.8345 39.3161 90.9206 39.4191 90.992C39.3869 90.9854 39.3592 90.9813 39.3269 90.9747C39.0458 90.92 38.2405 90.6583 38.1402 91.1445C38.0485 91.5639 38.6837 91.7034 39.0293 91.7714C38.9531 91.7992 38.895 91.8374 38.8523 91.8905C38.5502 92.3199 39.1041 92.4962 39.4336 92.5609C49.1275 94.4388 58.8149 96.0259 68.6942 96.4264C74.4811 96.6644 80.2997 96.556 86.0376 95.7433C83.4992 96.3584 80.92 96.7108 78.2955 96.7979C73.4753 97.0523 68.6893 96.9557 63.9225 96.6071C63.6464 96.5852 63.3704 96.5634 63.0943 96.5415C62.8066 96.5189 62.5189 96.4963 62.2338 96.4692C55.0826 95.8023 48.0015 94.6078 40.9251 93.2486C40.6749 93.2237 40.4304 93.2201 40.1807 93.2254C40.0517 93.1988 39.9201 93.1766 39.7912 93.15C39.2288 93.0406 38.0445 92.9667 37.5356 93.2647C37.2463 93.4325 37.1088 93.8374 37.5744 93.9269C42.2736 94.8403 46.9943 95.7064 51.7417 96.3905C59.163 97.5064 66.6425 98.2194 74.1405 98.0462C80.0281 97.9118 85.8674 97.4028 91.6006 96.0254C97.6791 94.5604 104.129 92.1197 108.325 87.32C108.968 86.8003 109.589 86.256 110.17 85.6767C111.642 84.2006 112.655 82.3939 113.47 80.5028C113.54 80.3399 113.419 80.0908 113.257 79.9553ZM90.7227 40.614C90.5654 40.5949 90.4125 40.5784 90.2526 40.5638C91.0217 40.4817 91.7959 40.4325 92.5701 40.425C92.0017 40.4616 91.4345 40.5168 90.8731 40.5932C90.8241 40.5948 90.7744 40.608 90.7227 40.614ZM57.4848 15.6664C56.6448 15.3608 55.8034 15.1201 54.9548 14.9231C54.6943 14.8325 54.4313 14.7464 54.163 14.6693C55.5768 14.8458 56.9587 15.1713 58.2912 15.6656C59.4636 16.2707 60.5724 17.0066 61.5959 17.8486C61.5869 17.8434 61.5734 17.8356 61.5644 17.8304C60.3171 16.9488 58.9708 16.2074 57.4848 15.6664ZM91.7408 35.4859C92.3212 35.5639 92.9043 35.6375 93.4892 35.7181C92.8395 35.7496 92.1956 35.8023 91.5575 35.8763C90.9032 35.9052 90.2522 35.9598 89.5953 36.035L91.7408 35.4859ZM115.427 56.7782C114.981 55.4984 114.433 54.2493 113.827 53.0384L114.268 53.6281C114.424 53.8794 114.574 54.1397 114.725 54.3999C115.208 55.3964 115.646 56.3784 116.01 57.3721C116.102 57.724 116.196 58.0713 116.262 58.4262C116.246 58.5367 116.235 58.6498 116.222 58.7558C115.976 58.0878 115.713 57.4279 115.427 56.7782ZM97.3594 39.7762C97.0209 39.6644 96.6747 39.5662 96.333 39.4705C97.4255 39.5991 98.516 39.8042 99.587 40.1056C100.44 40.347 101.255 40.6441 102.039 40.9834C102.266 41.0905 102.498 41.2002 102.725 41.3073C102.852 41.3686 102.974 41.4273 103.101 41.4887C103.666 41.8747 104.236 42.2633 104.801 42.6493C105.172 42.9234 105.528 43.2127 105.872 43.5129C105.503 43.2878 105.128 43.0717 104.739 42.8708C104.567 42.7834 104.392 42.7005 104.22 42.6131C102.1 41.3054 99.7782 40.3475 97.3594 39.7762ZM115.311 53.2077C114.991 52.5327 114.654 51.8659 114.305 51.21C114.411 51.3908 114.524 51.5698 114.628 51.7551C114.706 51.8901 114.776 52.0198 114.854 52.1548C115.009 52.5013 115.161 52.8523 115.311 53.2077ZM74.3964 37.3164C74.3933 37.2907 74.3901 37.2649 74.3824 37.2366C74.3389 37.0202 74.2839 36.803 74.2378 36.5911C74.2814 36.7657 74.3294 36.9429 74.3684 37.1149C74.4075 37.2869 74.4394 37.4608 74.4758 37.6373C74.4515 37.5336 74.4253 37.4228 74.3964 37.3164ZM72.7502 42.7096C72.7269 42.75 72.6991 42.7878 72.6713 42.8255C72.6617 42.7901 72.6592 42.7527 72.6496 42.7173L72.6541 42.7199C72.6915 42.7176 72.7199 42.7101 72.7502 42.7096ZM112.433 45.1187C112.939 45.8053 113.444 46.4919 113.95 47.1785C114.374 47.7996 114.772 48.4424 115.161 49.0915C115.326 49.4316 115.49 49.7833 115.646 50.1369C116.085 51.1073 116.498 52.0692 116.858 53.0487C115.979 51.1542 114.934 49.3189 113.793 47.638C113.031 46.5102 112.19 45.445 111.29 44.4527C111.673 44.6741 112.054 44.8999 112.433 45.1187ZM67.9286 18.8083C68.3057 19.301 68.6873 19.7964 69.0618 20.2936C69.215 20.5076 69.3539 20.7253 69.5044 20.9438C70.33 22.389 71.0646 23.8774 71.7462 25.3949C72.3951 26.8338 72.8917 28.2864 73.3933 29.7718C72.0381 25.9103 70.2073 22.1328 67.534 19.0229C66.4616 17.7759 65.2869 16.6852 64.0056 15.7481C63.8813 15.6405 63.755 15.5257 63.6236 15.42C65.3466 16.1756 66.785 17.299 67.9286 18.8083ZM68.0543 24.6744C68.1405 24.7959 68.2267 24.9175 68.3103 25.0435C68.7053 25.6303 69.0667 26.2335 69.4185 26.8432C69.7816 27.579 70.1227 28.332 70.438 29.088C70.5857 29.4782 70.7333 29.8683 70.8693 30.2578C71.5238 32.1244 72.0835 34.0199 72.5508 35.9399C72.3635 35.3475 72.1692 34.757 71.9606 34.1702C71.6663 33.2111 71.3623 32.2583 71.0086 31.3187C70.5125 29.98 69.937 28.6432 69.2782 27.3362C68.9128 26.4376 68.5029 25.5433 68.0543 24.6744ZM72.7985 41.751C72.7131 41.8572 72.6252 41.9678 72.5263 42.0662C72.5482 41.7261 72.6031 41.3811 72.6366 41.0417C72.655 40.8849 72.6649 40.7531 72.6806 40.6426C72.7386 41.0109 72.7734 41.3778 72.7985 41.751ZM107.749 39.6046C106.458 38.7272 105.093 37.9754 103.633 37.3593C103.212 37.182 102.78 37.0227 102.348 36.8749C102.633 36.9136 102.924 36.9504 103.209 36.989C104.481 37.5144 105.741 38.1761 106.891 38.9354C107.186 39.1536 107.471 39.3781 107.749 39.6046ZM63.6981 13.9264C60.1522 11.6819 55.9892 10.6834 51.7382 10.8478C51.0304 10.8757 50.3232 10.9338 49.6147 11.015C48.0192 11.0803 46.4176 11.2916 44.8442 11.6209C50.668 10.1283 57.4496 10.0916 62.5899 13.1789C62.876 13.3501 63.1543 13.5347 63.4281 13.7167C63.5196 13.7875 63.6066 13.8556 63.6981 13.9264ZM48.5264 15.7856C48.2233 15.7481 47.9176 15.7151 47.6112 15.6937C48.9772 15.5257 50.3534 15.4653 51.7151 15.534C50.6493 15.5464 49.586 15.638 48.5264 15.7856ZM71.9114 44.5272C71.9119 44.5575 71.9196 44.5858 71.9202 44.616C71.8963 44.6262 71.8744 44.6434 71.8505 44.6535C71.848 44.6162 71.848 44.5744 71.8526 44.5352C71.8713 44.534 71.8926 44.5284 71.9114 44.5272ZM70.6633 46.1265C70.6955 46.1331 70.7277 46.1398 70.7645 46.149C70.767 46.1864 70.7624 46.2256 70.7604 46.2603C70.7268 46.2768 70.6978 46.2959 70.6661 46.3194C70.6675 46.2545 70.6618 46.1914 70.6633 46.1265ZM106.361 45.2903C106.143 45.0746 105.922 44.8634 105.699 44.6566C105.741 44.6871 105.786 44.7132 105.826 44.7482C106.84 45.513 107.791 46.397 108.668 47.3576C108.04 46.7377 107.376 46.1574 106.68 45.6238C106.579 45.5176 106.471 45.4017 106.361 45.2903ZM109.838 84.0439C109.834 83.9043 109.739 83.6939 109.619 83.5587C110.382 82.935 111.11 82.2673 111.792 81.5549C111.189 82.4325 110.542 83.2609 109.838 84.0439ZM79.418 38.0572C79.8241 37.8851 80.2347 37.7156 80.6408 37.5435C81.391 37.2233 82.1566 36.9598 82.9319 36.7318C81.3199 37.3257 79.7374 38.0144 78.1973 38.7755C78.0895 38.8268 78.1548 39.1096 78.2614 39.3207C77.6958 39.592 77.1321 39.8704 76.5722 40.163C76.6144 40.0379 76.6611 39.9154 76.7239 39.7962C76.8004 39.6012 76.8627 39.4099 76.9114 39.2109C77.7392 38.798 78.5767 38.4205 79.418 38.0572ZM68.7757 30.0295C67.2213 26.1068 65.0802 22.2937 62.064 19.3505C63.2744 20.3064 64.3755 21.4204 65.3531 22.6545C66.274 23.82 67.0839 25.0529 67.8021 26.3404C67.6924 26.3429 67.6066 26.3352 67.5835 26.292C68.0503 27.0876 68.4772 27.8901 68.8847 28.7053C69.1794 29.4554 69.4573 30.2138 69.7164 30.9733C70.5581 33.4741 71.3441 36.0923 71.6462 38.736C71.6385 38.7076 71.6308 38.6793 71.625 38.658C71.6058 38.5871 71.4827 38.5399 71.3402 38.5055C70.7515 35.6186 69.8602 32.7662 68.7757 30.0295ZM97.6574 41.5207C96.6559 41.3072 95.6524 41.1702 94.6455 41.0911C96.5111 41.11 98.379 41.3334 100.235 41.8069C101.263 42.2753 102.252 42.8341 103.189 43.471C101.441 42.593 99.5868 41.9291 97.6574 41.5207ZM114.219 58.2453C113.072 55.0959 111.525 51.9308 109.548 49.1152C110.233 49.8873 110.881 50.7036 111.48 51.5516C112.037 52.346 112.58 53.1673 113.095 54.0148C113.517 54.8983 113.942 55.7773 114.364 56.6608C114.713 58.1297 115.059 59.6031 115.408 61.0721C115.446 61.4229 115.463 61.7793 115.466 62.1279C115.44 62.0171 115.413 61.9063 115.38 61.7974C115.355 61.7052 115.218 61.5782 115.086 61.4724C114.879 60.3724 114.597 59.2886 114.219 58.2453Z" fill="#FBBD20"/>
</svg>
