<svg width="104" height="115" viewBox="0 0 104 115" fill="none" xmlns="http://www.w3.org/2000/svg">
<g clip-path="url(#clip0_281_26795)">
<path d="M0.154373 41.5355C-0.00772095 40.3765 -0.0437393 39.1995 0.0566025 38.0328C0.126068 37.2189 0.239273 36.4102 0.388504 35.6092C0.506859 33.7857 0.928818 31.9622 1.46399 30.2263C2.02232 28.4106 2.7453 26.6695 3.59437 24.9723C5.03777 22.0825 6.81823 19.3756 8.85598 16.8722C8.75564 16.8619 8.6167 16.8156 8.58325 16.8568C11.151 13.7146 13.9349 10.7244 17.2283 8.32661C17.4007 8.20041 17.5782 8.08193 17.7531 7.95831C17.6554 7.96088 17.4701 7.81923 17.4341 7.84498C18.4838 7.11353 19.6211 6.28679 20.7352 5.65321C22.0808 4.88828 23.4856 4.18 24.9239 3.61081C26.9488 2.80982 29.0148 2.18912 31.1195 1.73068C30.399 1.84142 29.6812 1.96762 28.9685 2.11701C28.8296 2.14276 28.5697 1.87748 28.7987 1.82339C30.3733 1.44479 31.9119 1.06619 33.5226 0.839542C35.1615 0.607744 36.8185 0.422306 38.4729 0.36822C39.4197 0.337314 40.364 0.332163 41.3082 0.350191C40.436 0.288379 39.5638 0.252321 38.689 0.239444C38.6118 0.236868 38.4085 0.012797 38.424 0.012797C40.1118 -0.0129583 41.7919 -0.0232604 43.4823 0.0540055C45.3168 0.138998 47.1487 0.34504 48.9678 0.623198C48.9627 0.574263 48.9884 0.540781 49.0656 0.553658C52.6008 1.15118 56.0871 1.89036 59.5065 2.98496C63.4456 4.24439 67.2587 5.88501 70.9097 7.82696C75.9037 10.4926 80.5761 13.7249 84.7828 17.5187C90.7314 22.8835 95.7409 29.3713 99.0342 36.7012C100.043 38.9445 100.889 41.2728 101.553 43.65C102.755 47.2609 103.542 51.0057 103.833 54.8278C104.077 58.0266 104.044 61.2151 103.779 64.3779C103.498 69.9539 102.464 75.4578 100.894 80.8175C99.3121 86.4038 97.1431 91.8382 94.6165 97.0433C94.5136 97.2622 94.4107 97.4837 94.3052 97.7027C92.3215 101.805 90.1036 105.792 87.6568 109.635C86.571 111.34 85.4878 113.058 84.1422 114.572C84.029 114.699 83.9261 114.552 83.8695 114.346C83.782 114.444 83.6996 114.547 83.6096 114.642C83.5298 114.729 83.4707 114.704 83.4269 114.634C83.3369 114.74 83.2468 114.845 83.1542 114.948C82.9869 115.134 82.8969 114.753 82.8892 114.688C82.8763 114.601 82.8609 114.477 82.8557 114.351C82.8532 114.353 82.8506 114.359 82.848 114.361C82.6087 114.624 82.5881 113.885 82.5881 113.874C82.5856 113.838 82.5881 113.802 82.5856 113.766C82.5521 113.805 82.5212 113.843 82.4878 113.88C82.4466 113.926 82.4132 113.939 82.3875 113.936C82.3103 114.026 82.2357 114.117 82.1559 114.207C81.9629 114.42 81.9166 113.9 81.914 113.872C81.9063 113.617 81.8729 113.151 82.0555 112.942C82.125 112.865 82.1893 112.782 82.2562 112.705C82.2614 112.581 82.2665 112.455 82.2742 112.332C82.2717 112.293 82.2742 112.254 82.2742 112.218C82.2305 112.27 82.1868 112.324 82.1405 112.375C81.8754 112.679 81.9218 111.726 81.9218 111.778C81.9346 111.404 81.9604 111.034 81.9989 110.663C81.9964 110.459 82.0401 110.269 82.1276 110.091C82.1662 110.037 82.2048 109.983 82.2434 109.929C82.2485 109.836 82.2537 109.743 82.2614 109.653C82.2562 109.444 82.2923 109.249 82.3772 109.061C82.3952 109.038 82.4132 109.014 82.4312 108.991C82.4338 108.783 82.4415 108.577 82.4544 108.368C82.4441 108.177 82.4775 108 82.5547 107.83C82.6499 107.709 82.7399 107.585 82.83 107.461C82.8429 107.41 82.8583 107.361 82.8789 107.309C83.3008 106.769 83.6971 106.207 84.083 105.635C84.1499 105.532 84.2194 105.427 84.2888 105.324C84.5436 104.935 84.7957 104.541 85.0479 104.149C85.4184 103.559 85.7811 102.967 86.1439 102.38C86.5041 101.798 86.8566 101.213 87.2065 100.626C87.3609 100.366 87.5153 100.106 87.6671 99.8429C90.734 94.5116 93.4279 88.9665 95.5814 83.2024C97.5188 78.0153 99.0342 72.635 99.8704 67.1517C100.11 65.1686 100.264 63.1751 100.323 61.1816C100.349 60.3549 100.349 59.5281 100.328 58.7014C100.274 57.9184 100.2 57.1355 100.107 56.3551C99.4897 52.5227 98.3859 48.7856 96.8936 45.1927C96.8241 45.2314 96.7495 45.2391 96.7186 45.1773C95.8644 43.4594 95.0153 41.7493 94.0273 40.1035C93.5205 39.3051 93.0136 38.5067 92.5067 37.7108C89.5788 34.306 86.6482 30.9011 83.7202 27.4937C83.0333 26.8241 82.3463 26.1519 81.6567 25.4822C80.4166 24.4056 79.1173 23.3883 77.8128 22.407C76.3359 21.297 74.8231 20.2513 73.2639 19.2623C69.0263 16.5735 64.4902 14.3147 59.7689 12.5814C56.7612 11.4971 53.6762 10.6214 50.5424 10.0342C39.43 7.95316 26.1306 9.31046 17.2797 16.5863C16.0447 17.6011 14.8689 18.6802 13.7574 19.8289C13.3174 20.3054 12.8749 20.7819 12.4349 21.2583C12.0027 21.7348 11.5859 22.2267 11.1845 22.7316C11.0944 23.0947 11.0095 23.4604 10.9323 23.8339C10.4563 24.1816 10.0035 24.5344 9.57125 24.895C8.89715 25.7836 8.27193 26.7082 7.70332 27.6688C7.38428 28.2252 7.06266 28.7815 6.74361 29.3352C5.2539 32.0189 4.07807 34.9267 3.42197 37.9323C3.52489 38.6045 3.62524 39.2768 3.72816 39.949C4.20157 40.6804 4.67756 41.4119 5.15098 42.1433C6.48375 42.9572 7.81909 43.7685 9.15186 44.5823C9.55324 44.7729 9.96491 44.9532 10.4075 45.1258C11.4083 45.5224 12.4452 45.8341 13.4821 46.1225C14.5602 46.3749 15.6408 46.6273 16.7188 46.8823C18.435 47.2274 20.1588 47.5236 21.8904 47.7734C23.5499 48.0207 25.2146 48.2447 26.8716 48.5049C33.5612 49.5531 40.2559 51.0418 46.5673 53.5349C55.1763 56.9372 63.0314 61.9285 69.6901 68.3751C73.161 71.7387 76.2613 75.4346 79.0118 79.4087C81.3995 82.8573 83.4578 86.4605 85.318 90.2182C85.4724 90.5324 84.788 90.1692 84.8343 90.1976C84.7906 90.1718 84.7468 90.146 84.7005 90.1177C84.9372 90.5813 85.1714 91.0449 85.4029 91.5137C85.4621 91.6347 85.4106 91.6682 85.3129 91.6605C85.4775 91.9747 85.6396 92.2915 85.8017 92.6083C85.9201 92.8401 85.6088 92.7757 85.3412 92.6855C85.475 92.9482 85.6113 93.2109 85.7451 93.4736C85.6499 93.5432 85.5419 93.5586 85.4261 93.5251C85.5779 93.8213 85.7297 94.1175 85.8789 94.4137C85.7966 94.4884 85.6988 94.5167 85.5856 94.5038C85.6782 94.6867 85.7734 94.8696 85.866 95.055C85.7708 95.1555 85.6499 95.1915 85.5033 95.1632C85.4827 95.1632 85.4621 95.1606 85.4441 95.1606C85.5547 95.3744 85.6628 95.5907 85.7734 95.8045C85.794 95.8431 85.722 95.874 85.6036 95.8972C85.6885 96.062 85.776 96.2269 85.8609 96.3943C85.8918 96.4561 85.7503 96.5076 85.5393 96.5488C85.6113 96.6905 85.6859 96.8321 85.758 96.9738C85.8043 97.0665 85.5161 97.1566 85.1842 97.2288C85.336 97.5121 85.4904 97.7954 85.6396 98.0813C85.758 98.3053 84.5358 98.617 84.5204 98.6221C84.4098 98.6556 83.4243 99.0703 83.2906 98.8127C83.2751 98.7844 83.2597 98.7535 83.2442 98.7251C83.0178 98.7741 82.7991 98.7844 82.7374 98.6659C82.4955 98.1894 82.2511 97.7155 82.0041 97.2442C81.9115 97.2236 81.8369 97.1875 81.8034 97.1232C79.8506 93.3577 77.7047 89.7159 75.2759 86.2596C74.3445 84.9718 73.3745 83.7098 72.3556 82.4787C69.0777 78.5175 65.4088 74.9118 61.3487 71.7516C59.8127 70.554 58.2277 69.4233 56.5965 68.3622C55.0682 67.3706 53.5013 66.446 51.8906 65.5909C51.8546 65.5703 51.798 65.4957 51.7568 65.4313C49.3537 64.1744 46.8734 63.0643 44.3263 62.1088C39.0466 60.1308 33.5329 58.807 27.9779 57.8798C24.2575 57.2591 20.5062 56.8419 16.7754 56.2856C14.9229 56.01 13.0704 55.6803 11.2694 55.1575C11.2308 55.1472 11.1948 55.1343 11.1562 55.124C10.0447 54.8407 8.95376 54.4904 7.91173 54.0165C6.84653 53.5349 5.84052 52.9734 4.93743 52.2291C4.01633 51.4693 3.28046 50.5782 2.63981 49.5686C2.21013 48.8886 1.86794 48.1675 1.60292 47.418C1.13465 46.4934 0.784737 45.507 0.548027 44.4896C0.306175 43.5161 0.190392 42.5271 0.154373 41.5355ZM4.95287 44.5849C5.05064 44.7317 5.15098 44.876 5.25647 45.0176C5.51891 45.1593 5.78135 45.2983 6.04636 45.44C6.03606 45.4297 6.0232 45.4168 6.01291 45.4065C5.65012 45.1515 5.29507 44.8785 4.95287 44.5849ZM9.25735 48.0851C9.73592 48.2782 10.2171 48.4714 10.6956 48.6646C11.2488 48.8217 11.7994 48.9659 12.35 49.0998C11.6759 48.8964 11.0044 48.68 10.338 48.4431C9.71791 48.2216 9.10556 47.9692 8.50607 47.691C8.75822 47.8198 9.00778 47.9537 9.25735 48.0851ZM13.3123 47.1244C15.844 47.7451 18.6639 48.0413 21.2137 48.3916C22.019 48.5023 22.8244 48.6156 23.6271 48.7315C22.9427 48.6027 22.2558 48.474 21.5714 48.3478C19.6545 47.9923 17.7351 47.6575 15.8157 47.3227C14.6965 47.127 13.5902 46.9003 12.4915 46.6247C12.7668 46.7921 13.0396 46.957 13.3123 47.1244ZM66.263 14.7088C69.106 16.0506 71.8771 17.5522 74.5092 19.2752C76.7759 20.7613 78.9758 22.3426 81.0675 24.0682C81.366 24.3129 81.6516 24.5679 81.9449 24.8177C73.6138 17.5702 63.5382 12.3547 52.8323 9.69421C47.2671 8.31115 41.4086 7.74969 35.6864 8.27767C33.8442 8.44766 31.9994 8.74127 30.1829 9.16366C29.4033 9.3594 28.6263 9.57832 27.8596 9.82557C39.2396 6.4645 52.1376 8.6743 62.9233 13.2253C64.0503 13.694 65.1643 14.1885 66.263 14.7088ZM93.1706 37.9735C93.2632 38.1126 93.3507 38.2517 93.4407 38.3908C93.3146 38.1847 93.1911 37.9787 93.0625 37.7752C92.8772 37.4996 92.6894 37.2215 92.5016 36.9485C92.7306 37.2884 92.9544 37.6336 93.1706 37.9735ZM30.8596 58.1914C34.5543 58.9976 38.2181 59.9119 41.8279 61.0451C42.358 61.2125 42.8854 61.3825 43.4129 61.5577C38.6967 59.7857 33.8004 58.5237 28.8527 57.5965C27.2163 57.29 25.5748 57.0247 23.9307 56.7698C26.2438 57.2333 28.5568 57.6866 30.8596 58.1914Z" fill="#0097D4"/>
<path d="M46.1299 37.1031C46.4618 36.8378 46.9481 36.7142 47.3341 36.5468C47.5991 36.4309 47.8641 36.3201 48.1291 36.2068C48.0982 36.2094 48.0648 36.212 48.0339 36.2145C47.9027 36.23 47.7689 36.248 47.6377 36.2635C47.6428 36.2583 47.6505 36.2557 47.6557 36.2506C47.4087 36.2738 47.1643 36.2995 46.9173 36.3304C47.0253 36.2248 47.154 36.1424 47.298 36.0858C47.5013 35.9827 47.7071 35.8823 47.9104 35.7793C47.7097 35.7999 47.5065 35.8179 47.3058 35.8411C47.4113 35.7329 47.5373 35.6479 47.6788 35.5887C47.756 35.5475 47.8332 35.5088 47.9078 35.465C47.8718 35.4702 47.8358 35.4728 47.7998 35.4754C47.8487 35.4213 47.9027 35.3749 47.9619 35.3337C47.5528 35.3646 47.1437 35.4032 46.7372 35.4573C46.8401 35.3414 46.961 35.2461 47.1025 35.1766C47.2003 35.1148 47.298 35.0555 47.3958 34.9963C47.3572 35.0015 47.3212 35.004 47.2826 35.0066C47.3238 34.9577 47.3701 34.9165 47.4164 34.8753C47.0948 34.9036 46.7732 34.9345 46.4516 34.9757C46.5442 34.8547 46.6574 34.7568 46.7912 34.6795C46.8812 34.6151 46.9739 34.5533 47.0639 34.4889C47.0511 34.4915 47.0382 34.4915 47.0253 34.4915C47.1179 34.3679 47.2337 34.2674 47.3675 34.1902C47.437 34.1387 47.5116 34.0897 47.5811 34.0382C47.2157 34.0665 46.8504 34.1 46.4876 34.1438C46.5648 34.0228 46.6651 33.9223 46.786 33.8425C46.8967 33.7523 47.0099 33.6648 47.1231 33.5746C47.0948 33.5772 47.0665 33.5798 47.0382 33.5823C47.0665 33.536 47.0999 33.4973 47.136 33.4561C46.8375 33.4819 46.5416 33.5076 46.2457 33.5437C46.3049 33.4278 46.3898 33.3274 46.4979 33.2475C46.6883 33.0672 46.8864 32.8921 47.0794 32.7144C46.8298 32.7273 46.5776 32.7376 46.3281 32.7556C46.3692 32.65 46.4361 32.5573 46.5262 32.4852C46.6934 32.31 46.8658 32.1375 47.0382 31.9649C46.9481 31.9675 46.8581 31.9675 46.768 31.9726C46.7963 31.8748 46.8529 31.7949 46.9327 31.7254C47.1797 31.4524 47.4293 31.1845 47.684 30.9218C47.7895 30.8111 47.8975 30.7055 48.0056 30.5947C47.7843 30.587 47.5605 30.5767 47.3392 30.5741C47.3006 30.5741 47.774 29.9792 47.7612 29.992C47.8461 29.8942 48.0391 29.6031 48.2089 29.5182C48.2089 29.4744 48.2372 29.4254 48.2861 29.4203C50.9001 29.1267 53.4653 29.1602 56.0666 29.5825C59.8822 30.2007 63.5152 31.6687 66.7313 33.809C70.6293 36.4025 73.9869 39.998 76.1636 44.1755C76.3386 44.464 76.5084 44.7524 76.6756 45.0434C77.0847 45.762 77.4218 46.5038 77.7305 47.2636C78.0625 47.9486 78.3661 48.644 78.6311 49.3523C78.505 49.3678 78.3789 49.3549 78.2528 49.3214C78.4124 49.6923 78.5667 50.0683 78.7083 50.4469C78.6259 50.4495 78.5436 50.4418 78.4638 50.4237C78.469 50.4392 78.4767 50.4546 78.4844 50.4701C78.3738 50.4701 78.2657 50.4495 78.1602 50.4212C78.348 50.8358 78.5307 51.2505 78.698 51.6729C78.5899 51.6703 78.487 51.6445 78.3866 51.6059C78.4098 51.6626 78.4355 51.7192 78.4587 51.7785C78.3918 51.7733 78.3275 51.7579 78.2657 51.7424C78.3506 51.9484 78.4381 52.1545 78.5179 52.3631C78.4844 52.358 78.4535 52.3477 78.4201 52.3425C78.4432 52.3966 78.4664 52.4507 78.4896 52.5048C78.3635 52.4996 78.2426 52.4636 78.1293 52.3966C78.0058 52.3451 77.8875 52.2884 77.764 52.2343C77.9106 52.5794 78.0522 52.9271 78.1859 53.2774C78.1191 53.2671 78.0547 53.2491 77.993 53.2259C78.0213 53.298 78.0522 53.3676 78.0805 53.4397C77.9595 53.4268 77.8463 53.3856 77.7408 53.3135C77.6019 53.2414 77.463 53.1667 77.3266 53.0946C77.4372 53.3547 77.5427 53.6174 77.6456 53.8827C77.6302 53.8801 77.6173 53.8724 77.6019 53.8672C77.6225 53.9213 77.6431 53.9754 77.6636 54.0295C77.5556 54.0166 77.4552 53.978 77.3652 53.9084C77.1902 53.808 77.0204 53.7024 76.8455 53.6019C76.9767 53.9058 77.1028 54.2123 77.2237 54.5214C77.1748 54.5111 77.1259 54.4931 77.0822 54.4725C77.1053 54.5317 77.1285 54.5884 77.1516 54.6476C77.0539 54.6373 76.969 54.5987 76.8918 54.5317C76.5933 54.3411 76.3 54.1454 76.0093 53.9445C75.9964 53.9368 75.9861 53.9265 75.9732 53.9187C76.1199 54.269 76.2614 54.6244 76.3978 54.9824C76.2923 54.9618 76.1997 54.9129 76.1199 54.8356C75.9321 54.6991 75.7468 54.56 75.5616 54.421C75.7082 54.7506 75.8497 55.0854 75.981 55.4203C76.053 55.6057 75.5873 55.2142 75.6439 55.258C75.559 55.191 75.4792 55.1189 75.3943 55.0494C75.4406 55.1653 75.4921 55.2786 75.5358 55.3945C75.6207 55.616 75.0264 55.0751 75.0933 55.1318C74.8463 54.9206 74.5993 54.7068 74.3574 54.4905C74.2262 54.3823 74.1053 54.2638 73.9972 54.1325C73.1585 51.9922 71.9132 50.076 70.4723 48.2912C69.5487 47.1451 68.5246 46.0608 67.4337 45.0718C66.6181 44.3326 65.7613 43.6424 64.8685 43.0011C61.4002 40.611 57.7956 39.1094 54.0571 38.481C51.7466 38.1951 49.3976 38.2621 46.9121 38.5711C46.7989 38.5737 46.7963 38.5557 46.8992 38.5119C47.1437 38.4321 47.3907 38.3677 47.6428 38.3213C47.8101 38.2827 47.9773 38.2492 48.1471 38.2131C47.5605 38.2569 46.9739 38.311 46.3821 38.3934C46.2663 38.4012 46.2612 38.3831 46.3667 38.3342C46.6137 38.244 46.8658 38.1694 47.1231 38.1101C47.6119 37.9813 48.1034 37.8577 48.5974 37.7392C48.8521 37.6697 49.1094 37.6156 49.3692 37.577C51.7595 37.7238 54.0906 37.9968 56.4139 38.6098C57.9345 39.0116 59.4216 39.5395 60.8548 40.1834C62.5992 40.9123 64.2716 41.8137 65.8385 42.8852C65.7742 42.8362 65.7124 42.7847 65.6481 42.7358C63.3376 40.9947 60.7776 39.6065 58.0271 38.7051C54.371 37.5049 50.5065 37.1572 46.6986 37.6749C46.5776 37.6903 46.6034 37.68 46.678 37.6182C46.768 37.5796 46.8555 37.5435 46.9456 37.5049C47.2672 37.389 47.5888 37.2756 47.913 37.1675C48.1497 37.0876 48.389 37.0104 48.6282 36.9305C47.8049 36.964 46.979 37.0335 46.1582 37.1494C46.045 37.1752 46.045 37.1726 46.1299 37.1031Z" fill="#0097D4"/>
</g>
<defs>
<clipPath id="clip0_281_26795">
<rect width="104" height="115" fill="white" transform="matrix(-1 0 0 1 104 0)"/>
</clipPath>
</defs>
</svg>
