<svg width="493" height="138" viewBox="0 0 493 138" fill="none" xmlns="http://www.w3.org/2000/svg">
<path d="M492.215 171.86C492.228 170.68 492.228 169.5 492.215 168.321C492.583 163.31 492.685 158.198 492.431 153.226C492.406 152.833 492.38 152.44 492.355 152.047C492.329 150.829 492.291 149.624 492.24 148.406C491.948 142.635 491.237 136.927 490.106 131.269C488.924 125.473 487.31 119.803 485.239 114.26C485.087 113.803 484.731 114.298 484.553 114.602C484.083 113.08 483.6 111.558 483.092 110.023C482.99 109.731 482.85 109.833 482.723 110.048C482.139 108.12 481.516 106.192 480.868 104.252C480.627 103.503 480.233 105.406 480.271 105.165C480.131 106.002 480.004 107.118 480.271 107.943C481.504 112.243 482.723 116.555 483.956 120.855C483.918 120.97 483.905 121.071 483.918 121.135C484.286 122.263 484.642 123.38 484.985 124.496C485.087 124.915 485.15 125.333 485.239 125.752C485.087 125.308 484.947 124.864 484.782 124.433C484.68 124.115 484.388 124.115 484.083 124.23C483.41 121.858 482.673 119.498 481.91 117.114C480.69 111.976 479.077 106.928 477.425 101.918C477.222 101.283 477.018 101.715 476.828 101.956C476.51 102.362 476.866 104.226 477.018 104.696C477.933 107.499 478.848 110.289 479.776 113.093C480.144 114.361 480.474 115.63 480.792 116.911C480.627 117.456 480.5 118.141 480.665 118.623C481.262 120.45 481.809 122.251 482.342 124.027C482.431 124.509 482.507 124.991 482.584 125.473C482.126 124.027 481.643 122.581 481.122 121.147C480.042 116.961 478.746 112.826 477.374 108.653C477.145 107.968 476.967 108.387 476.79 108.704C476.459 109.3 476.891 111.279 477.095 111.9C477.298 112.509 477.501 113.118 477.692 113.74C477.666 114.45 477.844 115.49 477.959 115.82C478.861 118.61 479.776 121.388 480.678 124.179C480.919 125.029 481.148 125.879 481.364 126.728C481.554 127.616 481.732 128.517 481.897 129.405C481.707 128.796 481.516 128.187 481.313 127.578C481.161 127.109 480.538 127.274 480.69 127.756C481.313 129.671 481.936 131.574 482.558 133.489C482.495 133.438 482.444 133.388 482.38 133.375C482.19 133.324 481.758 133.337 481.885 133.692C482.291 134.961 482.698 136.229 483.092 137.485C483.422 140.364 483.638 143.244 483.74 146.11C482.571 141.049 481.084 136.089 479.445 131.054C479.42 130.965 479.382 130.914 479.331 130.889C478.276 126.5 476.955 122.175 475.392 117.925C475.265 117.519 475.036 116.276 474.528 116.099C474.007 115.921 474.21 116.746 474.261 116.923C475.786 121.604 477.209 126.246 478.34 130.965C477.577 128.327 476.726 125.714 475.773 123.126C475.697 122.885 475.328 122.022 475.023 121.984C474.846 121.959 474.413 121.959 474.528 122.302C475.989 126.792 477.361 131.257 478.479 135.785C478.391 135.823 478.289 135.899 478.213 135.975C477.946 136.242 478.035 137.51 478.136 137.84C478.683 139.514 479.204 141.189 479.712 142.863C479.636 142.939 479.56 143.079 479.471 143.218C479.318 143.472 479.305 144.043 479.356 144.639C478.225 139.4 476.739 134.263 474.871 129.227C474.706 128.707 473.537 128.986 473.702 129.506C474.096 130.737 474.49 131.967 474.858 133.185C474.426 133.324 473.791 134.187 473.905 134.517C474.363 135.937 474.807 137.345 475.239 138.753C475.023 139.261 474.795 139.996 474.947 140.466C475.112 140.973 475.278 141.48 475.43 141.975C475.328 142.203 475.265 142.394 475.278 142.356C475.049 143.015 474.68 144.157 474.896 144.854C475.29 146.047 475.671 147.252 476.065 148.444C476.078 148.47 476.065 148.52 476.078 148.546C476.37 149.446 476.675 150.359 476.967 151.26L477.59 153.201C477.539 153.911 477.603 154.837 477.692 155.116C478.327 157.057 478.95 158.985 479.534 160.913C479.953 162.942 480.297 164.972 480.589 167.014C480.589 167.027 480.589 167.04 480.589 167.052C480.36 169.589 480.055 172.139 479.674 174.676C478.619 178.887 477.387 183.06 475.964 187.258C471.288 200.932 464.807 213.947 457.362 226.301C438.429 257.733 413.106 284.992 385.635 309.143C353.399 337.493 317.644 362.012 279.969 382.599C244.1 402.209 206.426 419.066 167.278 431.028C135.639 440.693 102.971 447.885 69.8332 449.433C37.3814 450.942 2.60434 447.315 -25.8069 430.305C-26.1627 430.089 -26.5057 429.861 -26.8488 429.645L-28.8691 428.225C-33.3925 425.421 -37.5348 422.123 -41.2704 418.331C-42.6173 417.012 -43.9133 415.642 -45.1712 414.234C-19.0598 411.329 6.87366 406.826 32.4768 400.966C42.9467 398.632 53.3659 396.095 63.7215 393.33C116.885 379.149 168.637 359.399 217.582 334.284C254.049 315.562 289.22 293.82 320.896 267.729C335.026 256.097 348.431 243.565 360.54 229.84C372.662 216.09 383.653 201.11 391.454 184.455C393.182 180.751 394.758 176.959 396.13 173.103C403.322 156.727 407.185 138.893 404.389 121.135C404.415 120.64 404.453 120.145 404.478 119.65C404.529 117.9 404.516 116.15 404.44 114.412C404.859 110.226 404.987 106.002 404.745 101.753C404.72 101.271 404.669 100.789 404.631 100.307C404.593 97.0214 404.364 93.7362 403.881 90.4382C402.636 81.8636 399.815 73.7202 395.812 66.1602C389.93 50.2793 378.85 36.4533 365.317 25.8745C363.958 24.809 362.573 23.8069 361.175 22.8175C359.041 21.1939 356.868 19.6464 354.644 18.1877C328.584 1.15252 296.577 -2.42449 266.196 1.38084C245.04 4.0192 224.202 9.9682 204.418 17.8199C182.271 26.6229 161.026 37.4554 140.671 49.848C104.229 72.0204 70.748 98.7846 40.1641 128.441C22.0449 146.009 5.12018 164.909 -10.3179 184.874C-26.9758 206.425 -42.0074 229.396 -53.875 253.928C-63.2523 273.335 -70.9522 294.176 -74.4337 315.612C-76.6701 324.834 -78.2329 334.208 -78.8937 343.683C-79.1351 347.196 -79.2113 350.697 -79.1732 354.186C-79.4401 357.154 -79.6052 360.135 -79.6815 363.115C-82.4768 363.28 -85.2595 363.42 -88.0549 363.547C-135.221 365.589 -183.39 362.253 -229.056 349.771C-252.855 343.264 -276.095 334.677 -297.975 323.236C-307.047 318.492 -315.789 313.266 -324.315 307.621C-328.801 304.653 -333.146 301.52 -337.428 298.298C-343.235 293.643 -349.054 288.988 -354.874 284.332C-354.975 284.256 -355.064 284.269 -355.141 284.345C-356.208 283.483 -357.275 282.62 -358.355 281.758C-358.914 281.301 -358.953 283.787 -358.533 284.142C-357.555 284.967 -356.564 285.791 -355.585 286.616C-355.56 286.882 -355.509 287.098 -355.407 287.174C-345.954 295.102 -336.564 303.017 -326.424 310.082C-319.728 314.762 -312.625 319.265 -305.548 323.362C-284.202 335.73 -261.318 345.345 -237.735 352.537C-188.371 367.606 -136.148 372.096 -84.7386 369.965C-83.0613 369.889 -81.3714 369.8 -79.6942 369.711C-79.6942 369.762 -79.6942 369.8 -79.6942 369.838C-86.924 370.244 -94.1666 370.523 -101.396 370.65C-145.055 371.36 -188.841 367.365 -231.026 355.847C-248.256 350.761 -265.053 344.52 -281.368 336.922C-290.644 332.609 -299.589 327.675 -308.331 322.386C-313.629 319.291 -318.775 315.967 -323.794 312.441C-333.845 305.427 -343.476 297.867 -352.663 289.749C-353.171 289.317 -353.705 291.144 -353.705 292.083C-355.28 290.776 -356.843 289.47 -358.406 288.15C-358.902 287.732 -358.965 290.802 -358.457 291.245C-357.733 291.867 -357.021 292.489 -356.297 293.123C-356.704 292.78 -357.123 292.438 -357.529 292.095C-358.038 291.664 -358.165 294.658 -357.682 295.076C-356.869 295.786 -356.055 296.497 -355.23 297.207C-355.217 297.448 -355.179 297.626 -355.103 297.702C-349.359 302.661 -343.603 307.532 -337.657 312.2C-332.892 316.056 -328.013 319.773 -322.93 323.312C-316.247 327.98 -309.335 332.318 -302.283 336.402C-309.131 332.762 -315.827 328.842 -322.409 324.732C-322.663 324.567 -322.918 324.403 -323.172 324.238C-334.353 316.64 -344.747 308.217 -355.052 299.465C-355.331 299.224 -355.56 299.541 -355.687 299.96C-357.453 298.476 -359.219 296.979 -360.986 295.469C-361.9 294.683 -361.214 297.283 -360.846 297.613C-353.768 303.803 -346.666 309.803 -339.194 315.435C-334.137 319.532 -328.991 323.502 -323.616 327.244C-313.553 334.246 -303.045 340.601 -292.194 346.296C-284.481 350.342 -276.578 354.046 -268.56 357.433C-279.538 353.158 -290.288 348.313 -300.72 342.833C-307.95 339.04 -315.002 334.905 -321.926 330.58C-335.764 321.929 -348.343 311.744 -360.668 301.101C-360.935 300.86 -361.113 301.228 -361.176 301.406C-361.278 301.685 -360.655 302.408 -360.465 302.585C-357.275 305.363 -354.061 308.078 -350.833 310.767C-341.901 318.479 -332.905 325.937 -323.197 332.698C-313.146 339.7 -302.638 346.042 -291.787 351.738C-273.554 361.314 -254.304 369.166 -234.558 375.064C-221.28 379.034 -207.837 382.269 -194.279 384.857C-206.947 382.738 -219.527 380.036 -231.953 376.7C-249.641 371.956 -266.845 365.855 -283.515 358.41C-289.729 355.492 -295.853 352.359 -301.863 349.048C-310.821 344.266 -319.461 338.926 -327.784 333.053C-329.436 331.912 -331.062 330.719 -332.676 329.527C-339.715 324.162 -346.526 318.492 -353.222 312.631C-353.451 312.428 -353.59 312.416 -353.679 312.505C-354.582 311.693 -355.496 310.906 -356.386 310.082C-356.627 309.866 -357.352 310.133 -356.996 310.437C-355.878 311.401 -354.747 312.352 -353.629 313.304C-353.578 313.405 -353.502 313.507 -353.425 313.583C-347.072 319.139 -340.681 324.555 -334.036 329.679C-343.413 322.982 -352.269 315.739 -360.986 308.116C-361.354 307.786 -362.383 308.23 -361.85 308.712C-352.688 316.83 -343.413 324.542 -333.362 331.557C-325.472 337.049 -317.301 342.135 -308.915 346.816C-303.756 349.936 -298.509 352.904 -293.172 355.708C-274.939 365.284 -255.778 372.844 -236.121 378.971C-225.804 382.193 -215.321 384.895 -204.737 387.178C-213.745 385.453 -222.69 383.411 -231.521 380.988C-251.47 375.521 -270.885 368.557 -289.627 359.805C-298.89 355.479 -307.835 350.545 -316.577 345.256C-321.863 342.148 -327.022 338.837 -332.041 335.298C-333.438 334.335 -334.798 333.32 -336.17 332.33C-336.856 331.81 -337.555 331.29 -338.241 330.757C-344.772 325.811 -351.049 320.559 -357.059 314.978C-357.263 314.8 -357.428 314.927 -357.542 315.194C-358.571 314.268 -359.626 313.38 -360.642 312.441C-361.062 312.073 -362.066 313.075 -361.646 313.456C-359.118 315.714 -357.148 317.502 -355.344 319.1C-355.306 319.608 -355.191 320.115 -355.014 320.28C-353.692 321.46 -352.371 322.639 -351.037 323.794C-350.935 324.25 -350.744 324.758 -350.592 325.037C-353.654 322.5 -356.678 319.925 -359.702 317.299C-360.35 316.729 -361.062 318.885 -360.757 319.164C-359.257 320.508 -357.758 321.84 -356.246 323.16C-356.284 323.502 -356.297 323.895 -356.272 324.25C-357.453 323.223 -358.648 322.221 -359.804 321.168C-360.452 320.61 -361.151 323.274 -360.808 323.591C-360.223 324.111 -359.689 324.606 -359.169 325.062C-359.55 325.709 -359.791 327.447 -359.486 327.726C-357.618 329.426 -355.751 331.125 -353.87 332.838C-353.819 333.091 -353.743 333.294 -353.641 333.383C-350.49 336.313 -347.352 339.231 -344.201 342.161C-337.873 347.399 -331.342 352.372 -324.595 357.065C-315.281 363.534 -305.561 369.432 -295.561 374.785C-305.091 369.864 -314.277 364.473 -323.248 358.549C-328.419 355.238 -333.438 351.712 -338.305 347.97C-345.014 343.049 -351.341 337.696 -357.313 331.899C-357.872 331.392 -358.152 333.916 -357.758 334.284L-348.419 343.074C-342.091 348.313 -335.56 353.285 -328.813 357.978C-318.75 364.98 -308.229 371.31 -297.365 377.005C-279.081 386.582 -259.856 394.281 -240.111 400.294C-190.734 415.312 -138.511 419.751 -87.1019 417.544C-82.4133 417.341 -77.7247 417.062 -73.0361 416.758C-72.9853 416.897 -72.9471 417.05 -72.8963 417.189C-72.7947 417.633 -72.7184 418.09 -72.6168 418.534C-69.3258 432.474 -63.3031 445.932 -54.828 457.488C-37.2934 481.41 -10.1528 494.704 18.4744 500.259C55.6911 507.49 94.5596 503.418 131.446 495.034C137.697 493.676 143.885 492.192 150.01 490.607C201.191 477.377 250.351 455.991 296.068 429.645C338.126 405.418 378.036 376.548 412.445 342.224C430.323 324.39 446.816 304.957 460.271 283.559C467.806 271.572 474.452 258.887 479.509 245.62C487.476 227.633 492.558 208.099 492.927 188.4C493.143 182.87 492.876 177.39 492.215 171.86ZM482.965 229.396C482.431 230.918 481.872 232.428 481.3 233.925C482.037 231.692 482.723 229.447 483.359 227.189C485.481 219.667 487.082 211.942 487.984 204.154C487.171 212.095 485.671 219.857 483.473 227.696C483.308 228.267 483.13 228.825 482.965 229.396ZM-222.119 371.703C-236.388 367.783 -250.416 363.115 -264.088 357.547C-255.562 360.908 -246.896 363.927 -238.129 366.604C-214.393 373.846 -189.997 378.616 -165.347 381.394C-182.259 379.694 -199.082 377.081 -215.715 373.377C-217.862 372.832 -219.997 372.286 -222.119 371.703ZM59.8206 390.653C24.3956 399.976 -11.7919 406.877 -48.2589 410.606C-48.4875 410.327 -48.7163 410.061 -48.945 409.781C-11.1946 406.002 26.238 398.835 62.8701 389.068C104.826 377.867 145.893 363.204 185.409 345.167C144.915 363.864 102.869 378.971 59.8206 390.653ZM388.176 179.394C384.479 186.738 380.158 193.766 375.47 200.488C365.915 214.2 354.797 226.847 342.764 238.567C335.14 245.759 327.186 252.596 319.029 259.141C334.035 246.761 348.291 233.366 360.934 218.576C371.798 205.867 381.658 192.002 388.837 176.857C390.158 174.067 391.365 171.225 392.483 168.346C391.226 172.101 389.777 175.779 388.176 179.394ZM-64.2687 296.839C-62.7313 292.844 -61.0922 288.912 -59.4023 285.043C-55.3744 275.872 -50.8636 266.929 -45.9844 258.177C-48.3224 262.807 -50.5587 267.5 -52.6679 272.27C-56.9373 280.388 -60.9016 288.709 -64.3958 297.207C-64.3577 297.08 -64.3069 296.966 -64.2687 296.839ZM490.029 158.503C490.08 158.998 490.131 159.505 490.169 160C490.182 160.228 490.195 160.444 490.207 160.672C490.118 160.317 490.029 159.962 489.941 159.594C489.979 159.239 490.004 158.871 490.029 158.503ZM482.736 156.943C482.736 156.816 482.723 156.702 482.711 156.575C482.8 156.854 482.889 157.133 482.99 157.412C482.939 157.869 482.863 158.313 482.812 158.757C482.787 158.148 482.774 157.539 482.736 156.943ZM488.581 164.718C488.505 165.606 488.416 166.494 488.314 167.382C488.314 166.507 488.301 165.644 488.289 164.769C488.34 164.059 488.378 163.348 488.416 162.638C488.479 163.336 488.53 164.021 488.581 164.718ZM488.911 176.02C488.899 176.845 488.86 177.682 488.822 178.519C488.81 178.608 488.784 178.684 488.772 178.773C488.695 178.202 488.632 177.631 488.543 177.073C488.429 176.109 488.276 175.158 488.136 174.194C488.136 174.092 488.149 173.991 488.149 173.889C488.403 172.481 488.632 171.06 488.835 169.64C488.911 171.771 488.949 173.889 488.911 176.02ZM-51.105 446.554C-52.8458 444.309 -54.4977 441.987 -56.0478 439.603C-55.4125 440.402 -54.7772 441.214 -54.1165 441.987C-51.6387 444.879 -49.0085 447.581 -46.2513 450.118C-44.8917 451.653 -43.494 453.124 -42.0582 454.558C-40.8511 455.953 -39.6059 457.297 -38.3353 458.604C-42.9604 454.963 -47.2678 450.917 -51.105 446.554ZM-66.0731 310.209C-67.547 315.511 -68.8049 320.864 -69.8087 326.267C-70.0247 326.939 -70.2407 327.599 -70.444 328.271C-70.3042 326.077 -70.1645 323.895 -70.0374 321.701C-68.8303 317.832 -67.5089 314.001 -66.0731 310.209ZM400.654 110.657C400.654 110.53 400.641 110.416 400.628 110.289C400.641 110.213 400.641 110.137 400.654 110.061C400.666 110.163 400.692 110.264 400.704 110.365C400.692 110.467 400.666 110.568 400.654 110.657ZM398.519 314.877C397.426 315.929 396.333 316.982 395.228 318.022C393.322 319.747 391.403 321.447 389.485 323.147C361.938 347.323 331.798 368.735 300.134 387.254C310.871 380.772 321.43 373.986 331.747 366.857C355.267 351.243 377.77 333.979 398.519 314.877ZM478.429 225.553C479 223.523 479.521 221.481 480.03 219.426C481.148 216.712 482.202 213.972 483.181 211.207C482.825 212.615 482.457 214.035 482.063 215.443C480.957 218.868 479.75 222.229 478.429 225.553ZM-62.8965 426.703C-63.392 425.472 -63.9003 424.242 -64.3958 422.999C-64.2815 423.189 -64.1798 423.367 -64.0655 423.557C-62.5026 426.766 -60.7745 429.886 -58.894 432.918C-60.3171 430.888 -61.6513 428.821 -62.8965 426.703ZM396.842 147.873C395.762 151.235 394.529 154.558 393.157 157.818C393.652 155.941 394.084 154.038 394.478 152.135C395.406 150.08 396.27 148 397.083 145.907C397.058 146.3 397.045 146.681 397.02 147.074C396.969 147.341 396.905 147.607 396.842 147.873ZM475.532 230.969C474.629 233.569 473.651 236.144 472.635 238.694C470.5 243.146 468.213 247.51 465.799 251.81C464.579 253.915 463.321 255.995 462.038 258.063C463.473 255.361 464.858 252.634 466.167 249.869C469.28 243.882 472.088 237.755 474.579 231.502C475.43 229.777 476.256 228.039 477.044 226.289C476.574 227.849 476.065 229.422 475.532 230.969ZM-74.7641 353.463C-74.6879 353.019 -74.6244 352.575 -74.5481 352.131C-74.0907 349.518 -73.5571 346.917 -72.9599 344.33C-72.9599 345.281 -72.9471 346.232 -72.9344 347.184C-73.2521 349.366 -73.5316 351.56 -73.7603 353.754C-74.0018 354.959 -74.2305 356.164 -74.4465 357.369C-74.5354 356.811 -74.6498 356.266 -74.726 355.708C-74.726 354.947 -74.7641 354.211 -74.7641 353.463ZM373.831 47.679C376.702 50.6218 379.383 53.7422 381.836 57.0274C380.158 55.2009 378.392 53.4377 376.588 51.738C371.213 46.1061 365.152 41.0831 358.672 36.7831C357.795 36.1996 356.906 35.6669 356.016 35.1214C354.466 34.0052 352.878 32.927 351.264 31.8996C357.02 34.7663 362.586 38.2545 367.757 42.2247C369.866 43.9625 371.899 45.7763 373.831 47.679ZM399.434 124.204C399.421 124.331 399.396 124.471 399.383 124.597C399.358 124.255 399.345 123.925 399.307 123.583C399.358 123.786 399.383 123.976 399.434 124.179C399.434 124.192 399.434 124.191 399.434 124.204ZM389.612 165.594C388.71 167.42 387.769 169.209 386.804 170.984C385.508 173.217 384.174 175.411 382.776 177.555C383.221 176.667 383.678 175.779 384.11 174.891C384.695 173.648 385.266 172.392 385.825 171.124C387.871 167.078 389.726 162.904 391.353 158.655C391.772 157.843 392.191 157.031 392.598 156.207C392.14 157.932 391.658 159.67 391.086 161.408C390.616 162.803 390.12 164.198 389.612 165.594ZM8.02991 477.516C12.9345 478.683 17.89 479.635 22.8581 480.358C33.1248 481.854 43.4677 482.527 53.8233 482.577C79.2104 483.491 105.055 480.32 127.914 475.677C130.163 475.22 132.399 474.726 134.648 474.244C113.708 479.064 92.4122 482.286 70.9895 483.389C49.9479 484.467 28.4108 483.034 8.02991 477.516ZM-45.8192 447.277C-46.5054 446.478 -47.1915 445.691 -47.8777 444.892C-48.7671 443.725 -49.6184 442.533 -50.4443 441.328C-42.9476 449.065 -34.2693 455.357 -24.8793 460.392C-12.4399 468.688 1.62595 474.282 16.5304 477.795C2.09607 475.068 -11.8935 470.476 -24.7776 463.348C-29.1105 460.95 -33.2655 458.236 -37.2171 455.268C-40.2412 452.769 -43.1255 450.093 -45.8192 447.277ZM-55.0948 284.878C-53.3286 281.263 -51.499 277.673 -49.6057 274.121C-53.4303 282.569 -56.8737 291.195 -59.7961 299.985C-60.9143 302.497 -61.9943 305.021 -63.0235 307.558C-62.6678 305.909 -62.312 304.26 -61.9562 302.611C-59.8851 296.624 -57.598 290.7 -55.0948 284.878ZM399.269 112.649C399.142 111.913 398.989 111.19 398.837 110.467C399.053 109.351 399.243 108.234 399.408 107.118C399.434 108.957 399.37 110.809 399.269 112.649ZM397.236 140.034C396.854 141.074 396.448 142.102 396.041 143.142C396.143 142.685 396.245 142.216 396.333 141.759C396.638 140.808 396.931 139.844 397.198 138.893C397.21 139.273 397.223 139.654 397.236 140.034ZM-32.7318 440.085C-29.7585 442.571 -26.6582 444.879 -23.4435 447.01C-26.0991 445.615 -28.7039 444.118 -31.2578 442.52C-34.4725 440.135 -37.5602 437.573 -40.4318 434.833C-41.461 433.717 -42.4648 432.588 -43.4178 431.421C-44.1039 430.47 -44.8028 429.506 -45.4889 428.554C-44.9807 429.062 -44.4724 429.582 -43.9641 430.077C-40.4445 433.73 -36.6962 437.053 -32.7318 440.085ZM159.476 451.526C183.046 444.841 206.159 436.482 228.674 426.753C226.146 427.882 223.604 429.011 221.063 430.102C205.536 436.825 189.666 442.926 173.542 448.228C168.701 449.725 163.847 451.171 158.955 452.553C147.939 455.674 136.922 458.591 125.69 460.824C122.094 461.534 118.498 462.206 114.89 462.828C102.463 464.845 89.9472 466.202 77.4061 466.684C72.6921 466.861 67.9908 466.938 63.2768 466.887C95.8048 466.735 128.473 460.329 159.476 451.526ZM485.633 189.884C485.608 188.781 485.57 187.677 485.506 186.574C485.544 186.269 485.595 185.965 485.62 185.66C485.671 186.751 485.735 187.842 485.786 188.933C485.747 189.25 485.697 189.567 485.633 189.884ZM339.536 378.388C309.639 398.733 278.051 416.834 245.129 431.941C255.84 426.779 266.399 421.324 276.78 415.616C286.983 410.01 297.047 404.124 306.958 397.972C343.755 375.572 378.341 349.442 408.989 319.189C421.644 306.695 433.487 293.288 444.147 279.043C447.718 274.527 451.161 269.923 454.465 265.217C446.765 277.8 437.743 289.673 428.252 300.898C420.755 309.765 412.814 318.238 404.567 326.394C384.377 345.484 362.459 362.786 339.536 378.388ZM82.7555 479.66C73.2131 480.586 63.4419 481.131 53.6327 481.106C50.7865 481.005 47.953 480.865 45.1195 480.649C26.1109 479.241 7.14047 475.309 -10.2163 467.242C-10.7627 466.988 -11.3091 466.709 -11.8554 466.443C-9.97488 467.191 -8.06891 467.876 -6.15027 468.536C-2.12238 470.121 1.99445 471.517 6.1748 472.722C36.0218 481.271 67.6985 480.941 98.4731 476.768C101.815 476.4 105.118 475.982 108.371 475.538C116.236 474.447 124.051 473.064 131.84 471.453C115.677 475.208 99.299 478.049 82.7555 479.66ZM70.0746 126.969C78.8038 119.638 87.7491 112.56 96.8467 105.761C112.171 94.3197 128.066 83.6647 144.559 73.9865C113.022 93.5079 83.5941 116.441 56.517 141.734C53.6962 144.372 50.8882 147.049 48.1182 149.751C44.751 152.972 41.422 156.245 38.1184 159.556C26.2507 171.048 14.8151 183.085 4.00204 195.643C14.9167 182.121 26.5175 169.145 38.6901 156.74C48.7662 146.453 59.2489 136.521 70.0746 126.969ZM398.265 103.262C398.239 104.531 398.176 105.799 398.074 107.055C398.011 106.611 397.934 106.18 397.858 105.736C397.909 104.657 397.934 103.579 397.947 102.501C398.049 102.755 398.15 103.008 398.265 103.262ZM449.458 264.367C452.394 260.435 455.227 256.439 457.946 252.355C454.083 259.255 449.865 265.953 445.354 272.46C442.788 275.732 440.17 278.954 437.489 282.125C431.085 289.711 424.351 297.004 417.375 304.057C425.748 294.987 433.69 285.512 440.983 275.606C443.893 271.927 446.727 268.185 449.458 264.367ZM106.618 474.802C90.0616 477.212 73.2512 478.544 56.5933 477.872C55.1701 477.821 53.747 477.745 52.3239 477.669C71.3325 477.846 90.4301 475.791 109.032 472.544C124.953 469.766 140.709 466.024 156.249 461.534C192.627 451.564 227.886 437.332 261.533 420.474C304.696 398.86 345.775 372.54 382.636 341.324C355.305 365.386 325.077 386.391 293.832 404.784C291.634 406.078 289.436 407.346 287.225 408.615C256.539 425.891 224.405 440.617 191.369 452.566C163.961 462.511 135.499 470.337 106.618 474.802ZM-13.2912 464.172C-19.314 461.965 -24.9047 459.01 -30.1016 455.331C-33.5069 452.769 -36.7724 450.017 -39.8727 447.036C-40.3683 446.566 -40.8511 446.072 -41.334 445.59C-42.4902 444.347 -43.6465 443.116 -44.8028 441.873C-48.1699 438.042 -51.2067 433.907 -53.9131 429.557C-48.9323 435.556 -43.4051 440.782 -37.4458 445.323C-21.2326 460.76 -0.648438 469.779 21.4478 474.459C14.904 473.381 8.50006 471.834 2.05798 470.007C-0.407043 469.424 -2.82126 468.739 -5.22275 467.965C-7.90378 466.697 -10.5975 465.441 -13.2912 464.172ZM179.831 55.3024C183.796 53.4251 187.773 51.6112 191.801 49.8734C193.389 49.1885 194.99 48.5035 196.604 47.8312C182.436 54.0212 168.675 61.1118 155.448 68.6844C151.115 71.1579 146.833 73.7075 142.577 76.3205C154.52 68.8747 166.782 61.9236 179.361 55.5307C179.514 55.4673 179.666 55.3785 179.831 55.3024ZM320.096 25.7603C320.236 25.7857 320.375 25.8237 320.528 25.8491C331.824 28.8299 342.84 33.612 352.764 39.9922C328.126 26.2043 298.838 23.1854 270.732 26.6102C258.915 28.0562 247.238 30.517 235.752 33.7515C227.48 35.8444 219.31 38.356 211.254 41.2226C218.179 38.5209 225.193 36.0728 232.257 33.9418C239.081 31.8869 245.955 29.9842 252.918 28.4367L263.07 26.4326C271.113 24.8724 279.245 24.1748 287.466 24.327C292.256 24.124 297.059 23.9211 301.85 23.7181C307.961 23.9718 314.06 24.6568 320.096 25.7603ZM372.281 51.8902C374.809 54.7062 377.236 57.5982 379.472 60.6425C376.524 57.6997 373.424 54.8965 370.197 52.2581C370.006 52.1059 369.815 51.9664 369.625 51.8141C368.634 50.9516 367.617 50.1144 366.588 49.3026C358.418 41.692 349.587 35.7683 340.286 31.2907C342.078 31.963 343.844 32.686 345.585 33.4725C352.7 36.707 359.422 40.6392 365.648 45.2309C367.973 47.3365 370.184 49.5563 372.281 51.8902ZM382.763 70.0797C380.044 66.8579 377.147 63.8009 374.059 60.9216C371.963 58.9682 369.828 57.1416 367.655 55.4165C356.449 45.7637 344.098 39.1043 331.049 34.8804C326.131 33.0665 321.087 31.5952 315.966 30.4409C331.481 32.4831 345.851 36.8846 361.366 47.1463C363.78 48.7445 366.093 50.4696 368.342 52.2454C373.894 57.5729 378.773 63.5345 382.763 70.0797ZM388.494 161.915C387.744 163.31 386.982 164.68 386.194 166.037C386.715 164.858 387.21 163.665 387.693 162.473C387.909 162.029 388.138 161.585 388.341 161.129C388.76 160.304 389.18 159.467 389.574 158.63C389.65 158.49 389.739 158.338 389.815 158.198C389.802 158.262 389.79 158.313 389.777 158.376C389.383 159.568 388.938 160.735 388.494 161.915ZM367.617 195.897C360.476 205.676 352.56 214.873 344.111 223.561C339.511 227.976 334.797 232.276 329.994 236.487C298.165 264.278 261.812 286.996 224.532 306.682C211.432 313.608 198.078 320.103 184.545 326.204C189.005 324.124 193.453 322.005 197.862 319.836C217.544 310.171 236.87 299.655 255.548 288.112C270.897 278.815 285.84 268.857 300.223 258.152C326.538 238.542 351.836 216.141 371.239 189.466C373.221 186.954 375.127 184.405 376.995 181.804C374.098 186.637 370.934 191.343 367.617 195.897ZM7.4454 463.589C15.8188 465.973 24.3829 467.622 33.0359 468.688C27.1783 468.143 21.3334 467.331 15.5774 466.202C12.1721 465.327 8.81772 464.248 5.52679 463.005C6.16211 463.208 6.81009 463.411 7.4454 463.589ZM462.889 245.302C463.461 244.212 464.02 243.108 464.566 242.005C467.73 236.728 470.64 231.375 473.372 225.908C473.232 226.568 473.092 227.214 472.94 227.874C472.101 230.145 471.186 232.39 470.246 234.635C469.979 235.206 469.699 235.776 469.433 236.36C464.769 244.884 459.547 253.116 453.918 261.057C457.082 255.907 460.094 250.668 462.889 245.302ZM31.1553 475.677C24.5862 474.688 18.1441 473.178 11.8164 471.123C6.30185 469.817 0.952515 468.016 -4.23166 465.733C-9.98758 463.272 -15.6292 460.329 -20.9658 456.93C-11.9571 462.143 -2.19864 466.176 7.90286 469.056C25.8822 474.18 44.7129 475.943 63.3657 475.791C77.7746 475.677 92.1708 474.371 106.44 472.227C103.479 472.722 100.506 473.178 97.5328 473.597C75.4875 476.654 53.2769 477.795 31.1553 475.677ZM-73.2267 361.086C-73.214 361.644 -73.2267 362.202 -73.2013 362.773C-73.2648 362.773 -73.3283 362.786 -73.3918 362.786C-73.4046 362.71 -73.43 362.633 -73.4427 362.557C-73.3792 362.063 -73.3156 361.581 -73.2267 361.086ZM-43.6084 268.16C-41.0036 263.467 -38.2971 258.837 -35.5018 254.258C-37.1282 257.023 -38.7164 259.813 -40.2666 262.629C-41.6516 264.938 -42.9985 267.259 -44.3326 269.593C-44.0912 269.111 -43.8498 268.642 -43.6084 268.16ZM129.121 85.8591C144.495 75.7116 160.391 66.4266 176.82 58.0802C196.794 47.9327 218.204 39.1043 239.919 33.5359C239.945 33.5232 239.983 33.5232 240.008 33.5105C244.671 32.4196 249.36 31.4556 254.049 30.6819C267.86 28.3987 282.028 27.2951 296.005 28.2465C285.776 28.2465 275.624 29.1344 265.561 30.7326C233.515 35.299 201.521 47.6283 174.787 61.0611C169.171 63.877 163.631 66.8325 158.142 69.8895C155.156 71.5131 152.183 73.1494 149.247 74.8364C121.7 90.6158 95.8048 109.11 71.4977 129.481C89.7566 113.752 109.007 99.1397 129.121 85.8591ZM388.684 81.8889C389.37 83.614 389.993 85.3645 390.565 87.153C388.786 84.5527 386.867 82.0411 384.834 79.6184C379.04 69.2172 370.934 60.059 361.772 52.4737C362.573 53.0192 363.373 53.5519 364.161 54.1227C366.105 55.5434 368.011 57.0274 369.854 58.5623C377.299 65.2977 383.818 73.1113 388.684 81.8889ZM219.449 307.456C178.853 328.741 136.211 346.169 92.4758 359.881C59.2108 370.32 25.1453 378.717 -9.31415 384.413C-24.4092 386.797 -39.5678 388.675 -54.7899 390.006C-56.8483 390.184 -58.9067 390.336 -60.9651 390.488C-61.1049 390.121 -61.232 389.753 -61.359 389.372C-30.8131 386.569 -0.470581 381.521 29.4019 374.684C41.7269 371.868 53.9885 368.735 66.1611 365.31C107.711 354.008 148.358 339.269 187.468 321.308C227.696 302.826 266.628 280.908 302.142 254.423C306.958 250.833 311.722 247.142 316.437 243.362C312.498 246.723 308.495 249.996 304.404 253.205C288.826 265.395 272.485 276.658 255.612 287.085C243.757 294.264 231.686 301.038 219.449 307.456ZM-36.963 444.245C-37.1663 444.042 -37.395 443.852 -37.5983 443.636C-41.0417 440.135 -44.1801 436.431 -47.0645 432.537C-45.1967 434.377 -43.278 436.165 -41.2577 437.852C-38.9706 439.755 -36.5945 441.543 -34.1549 443.243C-27.7128 448.786 -20.6481 453.53 -12.9862 457.424C-12.2874 457.779 -11.5632 458.109 -10.8643 458.452C-19.4919 455.001 -27.7509 450.714 -35.4255 445.374C-35.9338 445.019 -36.442 444.626 -36.963 444.245ZM-4.0029 209.279C-2.64331 207.566 -1.28378 205.867 0.101196 204.167C29.5924 167.965 63.9502 135.164 101.485 107.385C107.152 103.199 112.895 99.1017 118.702 95.0934C135.27 83.9438 152.335 73.7455 170.149 64.6888C174.774 62.3422 179.463 60.0844 184.215 57.9153C148.853 75.0901 115.893 97.2751 85.5254 122.137C69.5028 135.252 54.0901 149.218 39.4779 163.983C39.3254 164.122 39.1857 164.262 39.0332 164.414C15.552 187.335 -6.41714 212.323 -25.2351 239.392C-18.6024 229.054 -11.4742 219.033 -4.0029 209.279ZM79.1596 124.293C76.3515 126.614 73.5561 128.948 70.7862 131.307C53.2261 146.326 36.4157 162.41 20.6854 179.47C26.5302 172.9 32.5276 166.481 38.6774 160.19C51.6378 147.62 65.1192 135.62 79.1596 124.293ZM352.484 46.8165C357.046 49.7973 361.213 53.2348 364.987 57.167C367.007 59.0443 369.04 60.9342 371.061 62.8115C373.488 65.4372 375.762 68.1897 377.871 71.0564C372.052 64.3337 365.279 58.3593 357.922 53.3363C356.258 52.0932 354.555 50.8882 352.827 49.7593C341.709 42.4403 329.486 37.5949 316.767 34.7282C320.693 35.3497 324.581 36.1489 328.419 37.227C336.843 39.5863 344.886 42.7321 352.484 46.8165ZM-71.181 351.763C-71.181 352.131 -71.1683 352.486 -71.1683 352.854C-71.2318 353.184 -71.2953 353.513 -71.3589 353.83C-71.308 353.146 -71.2445 352.461 -71.181 351.763ZM396.626 125.016C396.435 124.077 396.219 123.139 396.003 122.213C395.99 122.149 395.99 122.086 395.978 122.01C396.346 120.779 396.702 119.549 397.032 118.319C397.058 120.538 396.918 122.771 396.626 125.016ZM-61.3844 411.811C-61.5242 411.519 -61.6639 411.228 -61.791 410.936C-61.5242 410.91 -61.2574 410.898 -60.9905 410.872C-60.8635 411.164 -60.7237 411.443 -60.5966 411.735C-60.8635 411.773 -61.1176 411.786 -61.3844 411.811ZM310.299 242.423C303.654 247.497 296.869 252.406 289.995 257.15C299.804 250.237 309.372 243.007 318.622 235.396C326.995 228.508 335.254 221.265 343.158 213.604C338.52 218.424 333.704 223.092 328.774 227.595C322.739 232.707 316.564 237.641 310.299 242.423ZM-53.4049 292.793C-49.8853 285.766 -46.1115 278.865 -42.0963 272.092C-44.4851 276.608 -46.7849 281.174 -48.945 285.791C-51.1559 290.358 -53.2778 295 -55.26 299.693C-56.4798 302.281 -57.6742 304.881 -58.8305 307.507C-57.4709 303.461 -56.0224 299.452 -54.4849 295.482C-54.1418 294.569 -53.7607 293.681 -53.4049 292.793ZM105.906 110.315C113.352 105 120.925 99.8501 128.612 94.9158C152.97 79.2886 178.688 65.6402 205.752 55.3531C188.192 62.3676 171.191 70.9042 154.927 80.2273C149.425 83.3857 143.987 86.6583 138.612 90.0196C135.372 91.9984 132.145 94.0279 128.943 96.0828C102.869 112.826 78.2321 131.866 55.2591 152.706C71.1165 137.827 87.7998 123.824 105.246 110.809C105.462 110.632 105.69 110.48 105.906 110.315ZM48.4359 361.936C32.1591 365.906 15.768 369.369 -0.69931 372.261C-21.779 375.825 -43.0112 378.388 -64.3069 379.859C-64.3577 379.643 -64.4085 379.44 -64.472 379.225C-21.7409 375.99 20.6472 368.291 62.0315 357.268C90.2521 349.746 118.066 340.651 145.283 330.034C155.486 326.102 165.6 321.954 175.613 317.591C165.435 322.157 155.169 326.521 144.813 330.694C132.462 335.666 119.959 340.322 107.342 344.571C95.1187 348.693 82.819 352.613 70.4177 356.19C63.0989 358.219 55.7801 360.147 48.4359 361.936ZM372.751 81.5211C375 83.9311 377.147 86.4173 379.155 89.0176C375.533 84.5907 371.505 80.4809 367.147 76.7517C369.066 78.2865 370.946 79.8594 372.751 81.5211ZM-69.2115 383.931C-69.1226 384.273 -69.0209 384.616 -68.932 384.958C-68.9447 384.958 -68.9574 384.958 -68.9701 384.958C-69.0972 384.616 -69.1988 384.273 -69.3259 383.931C-69.275 383.931 -69.2369 383.931 -69.2115 383.931ZM-66.4543 369.026C-66.4543 369.014 -66.4543 369.001 -66.4543 368.988C-64.3323 368.836 -62.223 368.659 -60.1011 368.481C-62.223 368.671 -64.3323 368.862 -66.4543 369.026ZM388.532 132.119C388.341 132.703 388.113 133.286 387.897 133.87C382.382 146.846 374.784 158.871 366.245 170.058C363.17 174.092 359.968 178.012 356.664 181.842C341.506 198.725 324.263 213.769 306.259 227.532C271.329 254.232 232.944 276.329 193.186 295.038C175.244 303.473 156.998 311.185 138.485 318.213C163.796 308.496 188.611 297.448 212.728 285.081C249.182 266.384 284.379 244.681 316.055 218.627C330.185 207.008 343.59 194.489 355.699 180.764C367.833 167.027 378.812 152.034 386.613 135.392C387.757 132.969 388.811 130.483 389.815 127.984C389.421 129.379 388.989 130.762 388.532 132.119ZM331.76 60.7059C334.505 61.7714 337.249 62.8242 339.981 63.8897C345.445 66.1222 350.54 69.0015 355.254 72.5405C357.706 74.1387 360.159 75.7497 362.611 77.3479C367.084 80.8615 371.251 84.7049 375.127 88.8654C378.443 92.5438 381.62 96.3619 384.377 100.484C385.597 102.488 386.829 104.48 388.049 106.484C389.777 109.44 391.187 112.522 392.267 115.744C387.401 131.561 378.697 146.554 369.244 159.543C351.951 183.314 330.07 203.495 307.072 221.659C272.841 248.702 234.646 270.747 195.447 289.749C151.687 310.957 105.614 327.789 58.6263 340.347C17.9916 351.205 -23.6469 358.853 -65.6156 362.228C-63.6462 348.604 -59.9232 335.159 -55.0821 322.208C-50.0886 310.171 -44.1929 298.501 -37.8016 287.136C-18.882 253.509 5.66653 222.914 32.2989 195.11C64.649 161.332 101.027 131.231 140.709 106.383C156.134 96.7297 172.055 87.9521 188.51 80.1765C205.32 72.2234 223.071 65.3611 241.101 60.6679C246.056 59.3741 251.025 58.2325 256.031 57.2304C281.189 52.6386 307.301 52.702 331.76 60.7059ZM-61.9689 334.385C-64.04 340.525 -65.8189 346.753 -67.2802 353.044C-67.1912 352.245 -67.0895 351.446 -66.9879 350.647C-65.4123 344.203 -63.5064 337.924 -61.3844 331.899C-61.0033 330.821 -60.5966 329.743 -60.2028 328.665C-60.8253 330.567 -61.4098 332.483 -61.9689 334.385ZM334.772 55.6068C314.454 48.8967 292.295 47.92 270.973 50.5837C260.656 51.8776 250.415 53.9451 240.339 56.6469C230.275 59.1584 220.352 62.2915 210.606 65.9319C220.288 62.2281 230.123 58.9682 240.135 56.2917C268.801 48.6303 300.071 45.3831 328.978 53.5138C330.934 54.1608 332.866 54.8584 334.772 55.6068ZM280.808 256.693C294.556 247.522 307.872 237.743 320.617 227.253C327.199 221.836 333.717 216.204 340.032 210.319C338.774 211.587 337.503 212.843 336.22 214.086C326.69 222.851 316.665 231.096 306.398 238.935C285.98 254.511 264.379 268.502 242.029 281.174C255.268 273.513 268.229 265.369 280.808 256.693ZM385.991 150.905C385.609 151.552 385.228 152.199 384.847 152.846C385.787 150.829 386.689 148.787 387.528 146.719C387.045 148.114 386.524 149.51 385.991 150.905ZM57.0634 160.596C56.3138 161.293 55.5768 162.004 54.8271 162.714C51.1931 166.076 47.5972 169.488 44.0522 172.925C25.933 190.493 9.0083 209.393 -6.42981 229.358C-23.0877 250.909 -38.1193 273.88 -49.9869 298.412C-50.546 299.554 -51.0797 300.721 -51.6133 301.875C-51.9691 302.598 -52.3376 303.321 -52.6806 304.044C-55.8064 310.513 -58.7415 317.122 -61.3844 323.844C-55.6412 308.116 -48.208 293.009 -39.9871 278.434C-21.042 244.846 3.5192 214.276 30.1642 186.497C46.3774 169.589 63.6199 153.594 81.7644 138.715C73.3275 145.806 65.0938 153.099 57.0634 160.596ZM-70.3805 388.091C-70.4821 388.091 -70.5838 388.104 -70.6727 388.116C-70.66 387.685 -70.6473 387.254 -70.6346 386.81C-70.5457 387.241 -70.4567 387.66 -70.3805 388.091ZM-69.7198 391.097C-70.0501 391.123 -70.3805 391.135 -70.7108 391.161C-70.7108 390.831 -70.7108 390.501 -70.7108 390.171C-70.4567 390.146 -70.2026 390.133 -69.9485 390.108C-69.8722 390.438 -69.796 390.768 -69.7198 391.097ZM-69.4529 392.252C-69.3513 392.696 -69.2242 393.127 -69.1226 393.558C-69.6435 393.596 -70.1645 393.634 -70.6854 393.672C-70.6981 393.228 -70.6981 392.784 -70.7108 392.34C-70.2915 392.315 -69.8722 392.29 -69.4529 392.252ZM-68.5889 395.702C-68.5381 395.93 -68.4872 396.158 -68.4364 396.374C-68.9066 396.412 -69.3767 396.437 -69.8341 396.475C-69.923 396.247 -70.012 396.019 -70.101 395.791C-69.6054 395.753 -69.0972 395.727 -68.5889 395.702ZM370.324 180.168C369.701 181.107 369.079 182.045 368.443 182.971C366.093 185.8 363.678 188.59 361.213 191.33C364.352 187.69 367.414 183.973 370.324 180.168ZM381.709 163.653C382.255 162.765 382.814 161.877 383.335 160.976C382.674 162.118 382.001 163.247 381.327 164.376C381.454 164.147 381.582 163.906 381.709 163.653ZM390.171 143.18C390.451 142.267 390.705 141.354 390.959 140.44C390.806 141.138 390.654 141.836 390.476 142.521C390.374 142.749 390.285 142.964 390.171 143.18ZM-70.228 388.801C-70.1899 388.966 -70.1645 389.144 -70.1263 389.309C-70.3169 389.321 -70.5076 389.334 -70.6982 389.347C-70.6982 389.169 -70.6854 389.004 -70.6854 388.827C-70.5329 388.827 -70.3805 388.814 -70.228 388.801ZM392.954 137.142C393.475 134.555 393.881 131.942 394.186 129.303L394.211 130.825C394.148 132.183 394.059 133.54 393.919 134.897C393.602 135.646 393.271 136.394 392.954 137.142ZM395.215 117.266C395.495 115.909 395.724 114.551 395.952 113.194C395.99 113.296 396.041 113.397 396.079 113.499C395.851 114.945 395.584 116.391 395.279 117.824C395.253 117.646 395.228 117.456 395.215 117.266ZM176.998 72.1473C165.588 77.8299 154.432 84.0453 143.555 90.6665C122.551 103.427 102.463 117.722 83.3654 133.235C81.2815 134.91 79.2104 136.597 77.152 138.297C95.3347 123.012 114.47 108.843 134.432 96.0321C140.251 92.3028 146.147 88.6878 152.119 85.1996C160.276 80.5951 168.574 76.2444 176.998 72.1473ZM1.25748 211.27C-6.95078 221.329 -14.7524 231.705 -22.0712 242.398C-17.5859 235.7 -12.91 229.143 -8.05621 222.699C-5.00671 218.843 -1.9064 215.025 1.25748 211.27ZM-71.5113 384.121C-71.524 384.451 -71.5113 384.793 -71.524 385.136C-71.5494 385.136 -71.5749 385.136 -71.6003 385.136C-71.6003 384.793 -71.5748 384.463 -71.5748 384.121C-71.5494 384.121 -71.5367 384.121 -71.5113 384.121ZM-71.5495 386.455C-71.5622 387 -71.5748 387.546 -71.5748 388.091C-71.5876 387.546 -71.6003 387 -71.6003 386.455C-71.5749 386.455 -71.5622 386.455 -71.5495 386.455ZM391.963 146.224C391.721 147.252 391.467 148.279 391.2 149.294C389.917 151.806 388.532 154.279 387.071 156.727C388.837 153.302 390.489 149.801 391.963 146.224ZM393.525 100.865C393.068 99.7867 392.572 98.7085 392.064 97.643C391.861 96.8312 391.619 96.0194 391.378 95.2076C392.128 96.9073 392.839 98.6324 393.475 100.383C393.487 100.56 393.5 100.713 393.525 100.865ZM379.142 78.109C376.702 74.8744 374.047 71.7921 371.2 68.8747C372.522 69.9021 373.805 70.9803 375.05 72.0965C376.753 74.2275 378.329 76.46 379.739 78.8066C379.523 78.5656 379.332 78.3373 379.142 78.109ZM365.292 189.567C367.478 186.878 369.587 184.151 371.645 181.373C374.225 178.088 376.702 174.714 379.066 171.289C379.053 171.314 379.04 171.34 379.028 171.365C376.423 176.071 373.615 180.65 370.616 185.089C364.263 193.106 357.401 200.717 350.159 207.972C355.483 202.061 360.553 195.935 365.292 189.567ZM383.78 164.147C385.914 160.748 387.935 157.285 389.841 153.734C389.904 153.619 389.955 153.505 390.018 153.391C389.294 155.712 388.506 158.008 387.642 160.266C385.584 163.83 383.398 167.319 381.111 170.743C379.904 172.545 378.672 174.308 377.427 176.071C379.714 172.189 381.848 168.206 383.78 164.147ZM386.753 86.2524C386.804 86.3792 386.867 86.5061 386.931 86.6329C387.668 88.3199 388.328 90.0323 388.926 91.7574C387.452 88.2692 385.724 84.8698 383.78 81.6099C383.869 81.724 383.945 81.8509 384.034 81.965C384.987 83.3603 385.889 84.7937 386.753 86.2524ZM324.708 44.0386C321.023 43.2648 317.288 42.656 313.527 42.212C305.928 40.7533 298.178 39.9669 290.389 39.7639C299.232 39.6878 308.038 40.3474 316.691 41.8949C319.384 42.5164 322.053 43.2268 324.708 44.0386ZM-69.148 343.252C-69.4402 344.545 -69.707 345.839 -69.9739 347.133C-69.9866 347.184 -69.9993 347.235 -70.012 347.285C-69.9485 345.395 -69.8849 343.518 -69.8087 341.628C-69.4148 340.233 -68.9955 338.825 -68.5762 337.442C-68.8049 339.383 -68.9955 341.324 -69.148 343.252ZM-63.3031 383.449C-24.5871 380.049 13.7731 373.187 51.4218 363.445C56.085 362.291 60.7482 361.111 65.386 359.868C118.536 345.7 170.289 325.975 219.221 300.873C244.316 287.998 268.813 273.703 291.964 257.556C269.055 274.388 244.799 289.33 219.729 302.75C211.902 306.949 203.986 310.995 196.006 314.889C158.129 332.749 118.6 347.349 78.3718 358.828C32.2989 371.982 -15.1463 381.051 -62.9854 384.539C-63.0871 384.184 -63.1887 383.816 -63.3031 383.449ZM286.882 262.706C301.888 252.025 316.64 240.482 330.35 227.874C341.468 218.297 352.179 208.074 361.95 197.064C359.638 200.057 357.262 202.987 354.835 205.892C350.82 210.661 346.614 215.177 342.281 219.566C335.737 225.718 328.978 231.616 322.116 237.311C301.113 254.714 278.445 270.05 254.9 283.888C265.777 277.153 276.463 270.113 286.882 262.706ZM370.425 186.992C374.695 181.639 378.723 176.122 382.471 170.401C375.762 181.677 367.821 192.18 359.117 202.049C363.094 197.178 366.868 192.155 370.425 186.992ZM312.434 38.2164C306.831 37.2017 301.164 36.5675 295.471 36.263C299.105 36.3899 302.726 36.6309 306.335 37.0495C311.214 37.5061 315.992 38.4067 320.693 39.7132C317.948 39.1297 315.204 38.635 312.434 38.2164ZM-67.115 327.903C-67.242 328.626 -67.3818 329.35 -67.4962 330.073C-67.6994 330.707 -67.89 331.341 -68.0934 331.975C-67.8519 330.872 -67.5851 329.768 -67.331 328.665C-67.2547 328.411 -67.1912 328.157 -67.115 327.903ZM-61.7784 388.18C-49.4406 387.191 -37.1409 385.833 -24.8793 384.134C-35.9211 385.783 -47.0136 387.165 -58.1189 388.256C-59.2879 388.37 -60.4696 388.472 -61.6385 388.586C-61.6894 388.446 -61.7402 388.319 -61.7784 388.18ZM-62.0198 387.482C-62.1977 386.937 -62.4009 386.404 -62.5788 385.859C-24.0407 382.979 14.2306 376.485 51.7141 367.2C78.1939 360.642 104.343 352.676 130.01 343.391C118.015 347.907 105.932 352.156 93.7337 356.088C80.2523 360.439 66.644 364.435 52.9339 368.05C15.2344 377.614 -23.2529 384.375 -62.0198 387.482ZM169.374 328.347C179.895 323.73 190.327 318.872 200.644 313.786C200.987 313.621 201.33 313.469 201.673 313.304C223.033 303.042 244.087 291.778 264.366 279.297C250.288 288.024 235.866 296.192 221.279 303.879C198.51 315.904 174.939 326.698 150.975 336.148C150.696 336.262 150.404 336.364 150.124 336.478C156.592 333.852 163.008 331.151 169.374 328.347ZM394.72 141.836C394.644 142.026 394.567 142.216 394.478 142.406C394.72 140.884 394.923 139.375 395.088 137.853C395.203 137.51 395.304 137.18 395.419 136.838C395.393 137.764 395.368 138.702 395.304 139.641C395.126 140.364 394.923 141.1 394.72 141.836ZM396.765 108.082C396.74 107.955 396.702 107.829 396.677 107.689C396.689 107.588 396.689 107.473 396.702 107.372C396.727 107.55 396.753 107.714 396.778 107.892C396.778 107.968 396.765 108.032 396.765 108.082ZM395.342 102.463C395.164 101.88 394.999 101.283 394.809 100.7C394.809 100.624 394.796 100.548 394.783 100.459C394.999 100.979 395.203 101.512 395.406 102.044C395.393 102.184 395.368 102.324 395.342 102.463ZM391.797 91.3642C391.531 90.8695 391.276 90.3748 390.997 89.8801C391.226 90.2099 391.442 90.5524 391.658 90.8822C391.708 91.0471 391.759 91.1993 391.797 91.3642ZM297.402 33.3075C306.5 34.0432 315.661 35.5781 324.441 38.2545C306.195 33.4725 286.767 32.9651 267.962 35.2863C263.871 35.7937 259.792 36.4406 255.739 37.189C258 36.7197 260.262 36.263 262.549 35.8571C272.231 34.1067 282.244 33.0412 292.091 33.0285C292.574 33.0285 293.057 33.0412 293.54 33.0412C294.823 33.1173 296.106 33.2061 297.402 33.3075ZM167.201 69.0142C151.827 77.2718 136.935 86.4173 122.526 96.2731C117.088 99.9262 111.7 103.668 106.402 107.511C132.945 87.4954 161.369 69.6738 191.496 55.8351C201 51.4717 210.631 47.4507 220.441 43.9117C221.33 43.6327 222.207 43.3409 223.096 43.0746C233.693 39.8781 244.43 37.2905 255.307 35.4639C223.808 41.971 192.881 55.2136 167.201 69.0142ZM212.969 45.2182C207.645 47.1209 202.372 49.1504 197.137 51.2941C202.055 49.2138 207.023 47.2477 212.042 45.3831C217.48 43.379 222.995 41.5017 228.585 39.7893C224.596 41.0831 220.631 42.4657 216.692 43.9371C215.46 44.3684 214.215 44.787 212.969 45.2182ZM-33.3925 253.598C-35.9973 257.746 -38.5132 261.932 -40.9528 266.181C-40.2539 264.862 -39.5424 263.555 -38.8308 262.262C-37.0519 259.344 -35.2349 256.465 -33.3925 253.598ZM-72.3753 389.486C-72.3881 389.486 -72.4008 389.486 -72.4135 389.486C-72.477 389.309 -72.5405 389.131 -72.5913 388.941C-72.5532 388.941 -72.5151 388.941 -72.477 388.928C-72.4516 389.119 -72.4135 389.296 -72.3753 389.486ZM-72.261 392.442C-72.2229 392.556 -72.1848 392.67 -72.1339 392.772C-72.1085 393.114 -72.0831 393.444 -72.0577 393.786C-72.1593 393.799 -72.2483 393.799 -72.3499 393.812C-72.4008 393.355 -72.4262 392.911 -72.477 392.455C-72.4135 392.455 -72.3372 392.455 -72.261 392.442ZM-59.3387 415.756C-59.1736 415.743 -58.9956 415.73 -58.8305 415.705C-58.3857 416.631 -57.9029 417.532 -57.4328 418.445C-58.0808 417.57 -58.7034 416.656 -59.3387 415.756ZM342.23 220.822C343.806 219.299 345.369 217.765 346.919 216.217C349.269 213.934 351.582 211.625 353.856 209.279C351.646 211.778 349.358 214.213 346.995 216.585C338.825 224.969 330.185 232.872 321.239 240.406C328.482 234.153 335.521 227.646 342.23 220.822ZM395.736 99.5837C395.724 99.6979 395.711 99.812 395.698 99.9262C395.33 98.9495 394.923 97.9855 394.517 97.0215C394.453 96.3745 394.339 95.7276 394.262 95.0807C394.402 95.3344 394.555 95.5754 394.694 95.8291C395.076 97.0722 395.419 98.3279 395.736 99.5837ZM338.253 38.8126C322.205 32.8636 305.013 30.758 287.504 31.4303C279.792 31.3415 272.054 31.8108 264.417 32.7494C259.144 33.3963 253.909 34.2716 248.687 35.299C256.12 33.4471 263.68 31.8742 271.316 30.7833C289.093 28.8934 307.021 29.553 324.556 33.9418C327.326 34.6394 330.058 35.4766 332.764 36.4152C334.619 37.1509 336.449 37.9627 338.253 38.8126ZM297.377 29.0202C299.347 29.0583 301.329 29.1217 303.285 29.2358C304.696 29.3246 306.094 29.4261 307.466 29.5403C309.893 29.9208 312.307 30.3394 314.696 30.8595C309.003 29.8828 303.222 29.2739 297.377 29.0202ZM273.68 27.5108C271.24 27.6757 268.801 27.904 266.361 28.1577C272.536 27.2698 278.75 26.6355 285.027 26.3692C301.697 25.6588 319.041 27.1937 334.848 32.9016C340.032 34.7789 345 36.986 349.79 39.5229C335.953 33.0285 320.63 29.4261 305.522 28.5128C295.026 27.0541 284.315 26.7878 273.68 27.5108ZM-50.1267 282.024C-50.1521 282.075 -50.1648 282.113 -50.1902 282.163C-50.1775 282.125 -50.1521 282.087 -50.1394 282.049C-50.1394 282.037 -50.1267 282.024 -50.1267 282.024ZM-72.8074 387.102C-72.7438 387.482 -72.6676 387.863 -72.6041 388.243C-72.6676 388.243 -72.7184 388.256 -72.782 388.256C-72.7947 387.977 -72.8074 387.711 -72.8201 387.432C-72.8201 387.317 -72.8201 387.203 -72.8074 387.102ZM-67.6359 411.38C-67.5597 411.633 -67.4707 411.887 -67.3818 412.141C-67.4835 411.887 -67.5724 411.633 -67.6613 411.38C-67.6613 411.38 -67.6487 411.38 -67.6359 411.38ZM-61.054 415.895C-60.9397 415.883 -60.838 415.883 -60.7237 415.87C-60.4696 416.251 -60.2155 416.618 -59.9613 416.999C-57.7504 421.096 -55.2346 425.13 -52.363 429.087C-50.5333 431.599 -48.5892 434.009 -46.5562 436.292C-50.3808 432.677 -53.8877 428.745 -56.7721 424.698C-58.3222 421.819 -59.758 418.889 -61.054 415.895ZM93.7464 473.204C62.6288 476.717 29.7322 476.4 -0.0894165 465.783C-9.82242 462.32 -19.6443 457.576 -28.3608 451.501C-15.1971 459.492 -0.368927 464.692 15.1962 467.775C19.4274 468.84 23.7094 469.753 28.0042 470.476C65.0429 476.793 103.721 472.151 140.035 463.754C157.977 459.606 175.676 454.38 193.084 448.291C179.793 453.276 166.325 457.817 152.678 461.724C133.314 466.938 113.657 470.946 93.7464 473.204ZM110.01 466.494C123.263 464.172 136.414 461.191 149.438 457.678C150.175 457.488 150.899 457.323 151.636 457.132C202.83 443.928 251.99 422.555 297.733 396.234C314.2 386.759 330.337 376.561 345.94 365.627C340.489 369.635 334.962 373.555 329.384 377.373C305.878 393.482 281.227 408.107 255.713 420.944C232.893 431.992 209.412 441.708 185.346 449.636C153.44 460.151 120.48 468.219 86.9104 470.895C74.5599 471.884 62.0188 472.214 49.6048 471.402C70.2779 471.935 91.0654 469.817 110.01 466.494ZM244.112 427.667C245.523 426.994 246.92 426.297 248.318 425.624C261.202 419.574 273.87 413.117 286.297 406.281C298.546 399.545 310.604 392.417 322.421 384.895C320.185 386.328 317.923 387.761 315.674 389.169C282.739 409.705 248.013 427.73 211.864 442.013C222.753 437.522 233.515 432.728 244.112 427.667ZM482.533 199.639C481.999 201.985 481.402 204.319 480.741 206.653C481.122 204.662 481.453 202.67 481.758 200.666C482.113 199.461 482.444 198.256 482.774 197.038C482.698 197.901 482.609 198.776 482.533 199.639ZM459.674 254.105C451.682 267.12 442.483 279.411 432.534 291.043C437.108 285.398 441.479 279.601 445.621 273.652C450.577 267.323 455.265 260.803 459.674 254.105ZM407.642 317.578C392.547 332.077 376.486 345.535 359.727 358.067C343.158 370.46 325.865 382.041 308.088 392.683C332.955 377.195 356.728 359.944 378.926 340.905C381.188 338.964 383.424 336.998 385.66 335.019C395.508 326.673 405.037 317.959 414.173 308.864C421.276 301.786 428.175 294.429 434.77 286.806C426.308 297.588 417.146 307.824 407.642 317.578ZM388.977 330.453C373.856 343.442 357.999 355.619 341.544 366.959C362.827 352.042 383.119 335.717 401.95 317.895C403.818 316.132 405.685 314.344 407.528 312.53C401.518 318.682 395.33 324.656 388.977 330.453ZM-52.4901 424.521C-52.9983 423.696 -53.4811 422.846 -53.9767 421.997C-52.7315 423.785 -51.41 425.523 -50.0504 427.223C-50.8763 426.335 -51.6895 425.434 -52.4901 424.521ZM-60.5585 391.567C-54.0656 391.009 -47.5727 390.349 -41.1052 389.588C-14.0155 386.67 12.8837 382.041 39.4271 375.977C6.68304 383.905 -26.5693 389.588 -60.0884 392.772C-60.2409 392.366 -60.406 391.973 -60.5585 391.567ZM98.867 358.727C109.68 355.238 120.417 351.522 131.065 347.577C125.868 349.543 120.646 351.471 115.398 353.323C109.909 355.175 104.394 356.976 98.867 358.727ZM395.037 94.3323C394.516 92.7848 393.945 91.2374 393.335 89.7279C393.22 89.1571 393.119 88.599 392.992 88.0282C392.788 87.1783 392.572 86.3538 392.344 85.5167C393.792 88.2058 395.088 90.9837 396.219 93.8377C396.181 94.6495 396.143 95.4486 396.079 96.2477C395.736 95.6135 395.393 94.9666 395.037 94.3323ZM386.003 75.9272C385.114 74.5827 384.174 73.2635 383.208 71.9697C383.958 72.8957 384.695 73.8343 385.406 74.7856C385.609 75.1535 385.8 75.5467 386.003 75.9272ZM-75.0182 379.948C-75.0182 380.036 -75.0056 380.125 -75.0056 380.214C-75.031 380.125 -75.0437 380.036 -75.0691 379.948C-75.0564 379.948 -75.0309 379.948 -75.0182 379.948ZM-66.7465 411.316C-66.5051 411.304 -66.2636 411.291 -66.0222 411.266C-65.8698 411.557 -65.7173 411.849 -65.5648 412.141C-65.857 412.166 -66.1493 412.179 -66.4415 412.204C-66.5432 411.912 -66.6448 411.621 -66.7465 411.316ZM-61.6767 418.826C-60.2917 421.033 -58.8432 423.164 -57.3311 425.206C-56.6831 426.36 -56.0224 427.514 -55.3235 428.656C-53.875 431.041 -52.3376 433.324 -50.7493 435.518C-51.7277 434.478 -52.7061 433.425 -53.6844 432.385C-56.5815 428.605 -58.9957 424.343 -61.2447 420.107C-61.3845 419.675 -61.5369 419.244 -61.6767 418.826ZM18.2712 474.738C24.3829 475.791 30.5454 476.514 36.7334 476.996C44.9035 478.024 53.2007 478.544 61.4725 478.658C56.4916 478.696 51.5235 478.607 46.5426 478.341C33.6204 477.656 20.2279 476.058 7.57251 472.531C11.1176 473.394 14.688 474.13 18.2712 474.738ZM387.706 337.734C394.339 331.76 400.844 325.582 407.172 319.202C408.493 317.934 409.802 316.652 411.098 315.359C414.91 311.655 418.658 307.875 422.33 304.031C410.018 317.578 396.778 330.326 382.839 342.199C381.556 343.29 380.247 344.342 378.951 345.433C381.899 342.884 384.822 340.334 387.706 337.734ZM470.309 236.512C470.322 236.487 470.335 236.474 470.335 236.449C470.411 236.284 470.5 236.132 470.576 235.967C470.678 235.789 470.779 235.612 470.868 235.447C470.538 236.487 470.208 237.514 469.852 238.529C469.115 239.937 468.353 241.332 467.59 242.728C468.53 240.66 469.433 238.592 470.309 236.512ZM484.248 186.535C484.261 185.521 484.274 184.493 484.261 183.479C484.324 184.214 484.401 184.95 484.451 185.686C484.375 185.965 484.312 186.256 484.248 186.535ZM483.092 191.165C482.965 191.622 482.838 192.079 482.711 192.535C482.914 190.239 483.041 187.956 483.117 185.66C483.143 187.487 483.143 189.326 483.092 191.165ZM474.261 221.024C474.159 221.633 474.058 222.229 473.956 222.826C472.52 225.743 471.021 228.635 469.445 231.489C469.509 231.35 469.572 231.21 469.636 231.058C471.275 227.76 472.8 224.399 474.261 221.024ZM-58.9702 394.991C-29.9999 392.619 -1.19485 388.193 27.2291 382.104C-1.1059 388.307 -29.7712 392.911 -58.6653 395.562C-58.7669 395.359 -58.8686 395.169 -58.9702 394.991ZM211.47 315.726C168.294 337.569 122.768 354.845 76.3007 368.265C46.5299 376.865 16.1747 383.563 -14.4856 388.205C4.5611 385.06 23.468 381.127 42.1844 376.498C67.2665 370.282 92.0565 362.811 116.414 354.148C141.802 345.509 166.744 335.578 191.076 324.403C227.975 307.456 263.756 287.592 296.856 264.037C298.698 262.731 300.528 261.412 302.345 260.08C301.379 260.816 300.414 261.551 299.448 262.287C293.896 266.46 288.241 270.519 282.511 274.464C259.792 289.761 235.917 303.359 211.47 315.726ZM380.59 177.492C381.264 176.236 381.925 174.967 382.573 173.699C383.5 172.278 384.402 170.832 385.292 169.373C382.433 175.018 379.231 180.498 375.762 185.8C377.427 183.073 379.053 180.32 380.59 177.492ZM391.835 154.444C391.835 154.444 391.835 154.431 391.848 154.431C391.848 154.444 391.835 154.457 391.835 154.469C391.835 154.457 391.835 154.444 391.835 154.444ZM396.117 91.1486C394.707 87.9648 393.081 84.8824 391.276 81.9016C390.59 79.7706 389.815 77.665 388.951 75.5974C390.883 78.4895 392.522 81.5338 393.868 84.7556C394.682 86.5948 395.393 88.4721 396.054 90.3875C396.079 90.6539 396.092 90.9075 396.117 91.1486ZM387.261 75.8638C386.855 75.3057 386.461 74.7476 386.041 74.2022C382.827 68.2278 378.9 62.6086 374.441 57.4587C377.515 60.3888 380.425 63.5092 382.992 66.9086L385.533 70.7266C386.118 72.4263 386.689 74.1387 387.261 75.8638ZM375.838 53.8056C376.346 54.3383 376.855 54.8838 377.35 55.4292C380.667 59.1077 383.818 62.9384 386.575 67.0735C387.795 69.0777 389.015 71.0818 390.234 73.0859C390.298 73.2255 390.362 73.3777 390.425 73.5172C388.341 70.549 386.067 67.7331 383.653 65.0313C381.327 61.1118 378.71 57.3699 375.838 53.8056ZM322.815 24.6695C317.313 23.0966 311.697 21.9296 306.005 21.1432C315.572 22.1072 325.026 24.0606 334.174 27.219C335.712 27.7518 337.224 28.3226 338.736 28.9314C333.526 27.1429 328.215 25.7349 322.815 24.6695ZM137.596 75.8511C170.263 54.8584 205.536 37.3031 243.096 27.0288C243.718 26.8639 244.341 26.699 244.976 26.5341C262.282 22.6653 280.008 20.7753 297.555 22.0945C292.981 22.0311 288.394 22.1452 283.832 22.4497C262.93 23.883 242.384 28.9441 222.651 35.8318C207.48 41.1338 192.728 47.5902 178.408 54.8711C175.473 56.2664 172.551 57.6743 169.666 59.1204C148.294 69.8387 127.799 82.3202 108.244 96.1209C117.799 89.0429 127.583 82.2695 137.596 75.8511ZM5.3616 195.364C-7.28113 210.509 -19.0345 226.39 -29.6442 242.994C-29.5298 242.816 -29.4282 242.626 -29.3265 242.448C-24.3203 234.077 -18.8311 225.984 -13.1133 218.069C-7.1795 210.319 -1.01694 202.746 5.3616 195.364ZM-63.7605 416.111C-63.3539 416.961 -62.9092 417.798 -62.4772 418.648C-60.9651 423.024 -59.1989 427.311 -57.166 431.485C-57.9029 430.495 -58.6145 429.506 -59.3006 428.491C-61.448 424.534 -63.3539 420.424 -64.9803 416.225C-64.5737 416.187 -64.1671 416.149 -63.7605 416.111ZM-54.4849 434.884C-56.645 431.066 -58.5382 427.07 -60.1519 422.973C-57.0008 428.504 -53.3541 433.78 -49.1483 438.715C-46.3529 441.987 -43.3542 445.044 -40.1777 447.885C-38.0176 450.029 -35.794 452.059 -33.4815 453.974C-40.6859 449.091 -47.2805 443.357 -52.9856 436.723C-53.5065 436.114 -53.9767 435.493 -54.4849 434.884ZM179.895 457.424C184.024 456.042 188.141 454.621 192.245 453.137C190.022 453.961 187.786 454.76 185.549 455.547C183.669 456.194 181.788 456.815 179.895 457.424ZM453.893 268.109C456.942 263.2 459.839 258.203 462.508 253.091C463.41 251.645 464.325 250.186 465.201 248.727C463.88 251.264 462.508 253.788 461.097 256.287C458.823 260.295 456.409 264.228 453.893 268.109ZM484.731 193.512C484.731 193.829 484.731 194.159 484.731 194.476C484.591 195.11 484.464 195.744 484.324 196.366C484.477 195.415 484.617 194.463 484.731 193.512ZM487.107 175.614C487.12 175.563 487.12 175.513 487.132 175.462V175.475C487.12 175.525 487.107 175.576 487.107 175.614ZM484.985 179.876C484.871 178.836 484.756 177.809 484.617 176.781C484.756 176.16 484.883 175.525 485.01 174.904C485.036 176.553 485.023 178.215 484.985 179.876ZM484.35 172.963C484.362 172.862 484.388 172.747 484.401 172.646C484.401 172.697 484.401 172.747 484.388 172.798C484.375 172.862 484.362 172.912 484.35 172.963ZM397.82 133.553C397.807 133.337 397.795 133.121 397.769 132.906C397.884 131.891 397.985 130.864 398.062 129.836C398.265 128.415 398.43 126.982 398.557 125.549C398.646 126.627 398.71 127.705 398.748 128.771C398.468 130.369 398.163 131.967 397.82 133.553ZM398.405 101.068C398.252 100.725 398.1 100.37 397.934 100.015C397.922 99.4949 397.896 98.9749 397.884 98.4548C398.087 99.089 398.29 99.7232 398.481 100.357C398.455 100.598 398.43 100.839 398.405 101.068ZM395.711 87.5842C393.411 81.686 390.374 76.0921 386.778 70.8535C386.677 70.6378 386.575 70.4349 386.473 70.2192C387.795 71.9063 389.053 73.644 390.209 75.4706C391.302 77.4621 392.407 79.4662 393.5 81.4576C394.008 82.2568 394.491 83.0813 394.948 83.9057C395.152 84.6922 395.342 85.4913 395.508 86.2777C395.596 86.709 395.647 87.1403 395.711 87.5842ZM82.2472 114.31C93.7591 104.949 105.589 95.9813 117.761 87.4954C99.4134 100.522 81.8788 114.704 65.1827 129.798C60.5322 133.806 55.9453 137.878 51.4091 142.013C45.4372 147.467 39.5669 153.061 33.7982 158.757L34.7385 157.742C49.6048 142.356 65.6401 127.807 82.2472 114.31ZM-9.53012 208.936C-7.8656 206.805 -6.20111 204.674 -4.49847 202.556C8.30945 186.7 22.0958 171.568 36.6953 157.234C18.4618 175.944 1.40994 196.062 -13.7486 217.447C-20.9912 226.897 -27.878 236.601 -34.3455 246.558C-31.9694 242.474 -29.5298 238.427 -26.9631 234.457C-21.4613 225.768 -15.6292 217.257 -9.53012 208.936ZM-26.3278 236.17C-26.2007 235.992 -26.0737 235.827 -25.9594 235.65C-29.4917 241.218 -32.9097 246.85 -36.1752 252.571C-40.0252 259.331 -43.71 266.27 -47.1407 273.348C-47.9031 274.845 -48.6527 276.341 -49.3897 277.851C-51.6133 282.24 -53.7353 286.692 -55.7429 291.182C-54.5485 288.227 -53.2778 285.296 -51.9055 282.392C-49.4406 275.834 -46.6451 269.441 -43.5321 263.188C-38.1828 253.953 -32.4141 244.947 -26.3278 236.17ZM322.269 391.871C285.687 415.363 246.654 435.506 205.968 450.892C175.473 462.422 144.089 471.656 111.904 476.933C118.13 475.779 124.318 474.485 130.442 473.064C151.471 468.206 172.169 461.889 192.449 454.393C213.427 447.099 233.922 438.524 253.998 429.036C291.875 411.126 328.012 389.334 361.518 364.168C352.395 371.233 343.031 378.007 333.488 384.501C329.765 387 326.03 389.461 322.269 391.871ZM442 271.762C439.192 275.238 436.32 278.65 433.372 281.999C437.032 277.698 440.602 273.31 444.058 268.819C443.372 269.796 442.699 270.785 442 271.762ZM395.431 146.973C395.482 146.871 395.52 146.77 395.571 146.668C395.52 146.795 395.469 146.935 395.419 147.074C395.419 147.036 395.431 147.011 395.431 146.973ZM397.973 135.988C397.998 135.912 398.011 135.836 398.036 135.747C398.29 135.062 398.532 134.377 398.773 133.692C398.748 134.441 398.71 135.189 398.659 135.937C398.455 136.546 398.252 137.155 398.036 137.764C398.023 137.18 397.998 136.584 397.973 135.988ZM229.564 27.3839C248.293 21.4476 268.153 17.5028 287.949 17.1095C289.791 17.1222 291.621 17.1603 293.464 17.2491C283.845 17.414 274.226 18.4033 264.836 20.027C261.939 20.5216 259.055 21.0924 256.171 21.7013C246.158 23.6166 236.26 26.2296 226.552 29.3373C214.799 32.8129 203.312 37.0495 192.372 41.7046C194.228 40.8421 196.095 40.0049 197.963 39.1678C208.306 34.7282 218.84 30.7833 229.564 27.3839ZM-43.0366 260.511C-43.6846 261.602 -44.3199 262.693 -44.9552 263.784C-43.4559 260.955 -41.9057 258.152 -40.3301 255.349C-41.2577 257.061 -42.1599 258.786 -43.0366 260.511ZM-75.0818 369.559C-75.0818 369.585 -75.0818 369.623 -75.0818 369.648C-75.158 369.648 -75.2343 369.661 -75.3105 369.661C-75.3105 369.635 -75.2978 369.597 -75.2978 369.572C-75.2216 369.559 -75.1453 369.559 -75.0818 369.559ZM22.5405 483.009C27.8263 483.922 33.1629 484.594 38.5123 485.051C34.1159 484.772 29.7322 484.366 25.3485 483.757C19.2877 482.717 13.2776 481.36 7.39459 479.647C12.3754 481.017 17.4453 482.121 22.5405 483.009ZM482.495 207.224C482.596 206.59 482.673 205.943 482.774 205.308C483.003 204.535 483.206 203.748 483.422 202.962C483.829 201.846 484.235 200.742 484.617 199.626C484.591 200.121 484.553 200.615 484.528 201.11C483.88 203.165 483.206 205.194 482.495 207.224ZM481.351 189.199C481.465 188.844 481.567 188.502 481.669 188.146C481.593 189.199 481.516 190.252 481.402 191.305C481.135 193.931 480.792 196.518 480.398 199.093L480.119 200.095C479.674 201.287 479.204 202.48 478.734 203.659C479.852 198.89 480.729 194.07 481.351 189.199ZM198.586 326.559C175.651 337.582 152.144 347.463 128.206 356.177C158.18 345.015 187.468 331.962 215.727 317.16C244.417 302.129 272.269 285.157 298.139 265.623C303.019 262.084 307.834 258.469 312.586 254.765C320.286 248.753 327.834 242.487 335.127 235.941C323.082 247.446 310.172 258.088 296.831 268.033C285.128 276.76 273.057 285.005 260.681 292.806C240.618 305.173 219.793 316.361 198.586 326.559ZM369.028 200.412C372.687 195.871 376.143 191.178 379.421 186.345C377.16 189.833 374.809 193.233 372.382 196.493C369.892 199.854 367.312 203.152 364.657 206.387C366.156 204.433 367.605 202.429 369.028 200.412ZM16.5558 174.295C10.6601 181.043 4.91687 187.943 -0.623047 195.009C-6.48065 202.264 -12.1223 209.685 -17.5351 217.27C-18.9201 219.109 -20.2924 220.961 -21.6392 222.826C-10.0257 205.829 2.84576 189.656 16.5558 174.295ZM-40.6986 253.497C-40.7749 253.636 -40.8511 253.776 -40.9273 253.902C-40.8511 253.776 -40.7876 253.649 -40.724 253.522C-40.7113 253.509 -40.7114 253.497 -40.6986 253.497ZM-75.3232 362.862C-75.3232 362.874 -75.3232 362.887 -75.3359 362.9C-75.6154 362.913 -75.8823 362.938 -76.1618 362.951C-76.022 361.758 -75.8696 360.566 -75.7044 359.386C-75.5773 360.553 -75.463 361.707 -75.3232 362.862ZM-76.1872 369.61C-76.1872 369.648 -76.2 369.673 -76.2 369.711C-76.4032 369.724 -76.6065 369.737 -76.8098 369.749C-76.8098 369.711 -76.7971 369.673 -76.7971 369.648C-76.5938 369.635 -76.3905 369.623 -76.1872 369.61ZM-77.0386 380.049C-77.0132 380.049 -76.9877 380.049 -76.9623 380.049C-76.975 380.239 -76.975 380.43 -76.9877 380.607C-77.0004 380.607 -77.0004 380.607 -77.0132 380.607C-77.0132 380.43 -77.0258 380.239 -77.0386 380.049ZM-75.374 389.702C-75.5265 389.715 -75.679 389.727 -75.8188 389.727C-75.8315 389.524 -75.8442 389.334 -75.8569 389.131C-75.6917 389.119 -75.5265 389.106 -75.3613 389.106C-75.3613 389.309 -75.374 389.499 -75.374 389.702ZM-75.3867 390.501C-75.3867 390.818 -75.3995 391.135 -75.3995 391.44C-75.4249 391.44 -75.4503 391.44 -75.463 391.44C-75.5392 391.135 -75.6154 390.818 -75.679 390.514C-75.5901 390.514 -75.4884 390.501 -75.3867 390.501ZM-69.9103 412.445C-69.923 412.445 -69.923 412.445 -69.9357 412.445C-70.0247 412.217 -70.1263 411.989 -70.2153 411.76C-70.1136 411.989 -70.0247 412.217 -69.9103 412.445ZM439.281 293.491C442.61 289.444 445.824 285.309 448.937 281.098C443.194 289.165 437.057 296.953 430.59 304.475C433.563 300.873 436.46 297.207 439.281 293.491ZM485.608 197.406C485.62 197.051 485.646 196.696 485.646 196.328C485.735 196.036 485.836 195.757 485.925 195.465C485.875 195.922 485.824 196.366 485.773 196.823C485.722 197.026 485.659 197.216 485.608 197.406ZM475.049 212.348C474.845 212.792 474.655 213.236 474.452 213.667C474.363 213.858 474.261 214.048 474.172 214.238C475.201 211.207 476.142 208.15 476.993 205.067C476.408 207.516 475.748 209.938 475.049 212.348ZM466.536 228.775C468.403 224.893 470.144 220.961 471.745 216.965C470.818 219.591 469.827 222.217 468.759 224.804C468.035 226.136 467.285 227.468 466.536 228.775ZM197.823 330.732C191.915 333.599 185.969 336.364 179.984 339.066C188.243 335.286 196.426 331.379 204.532 327.307C218.217 320.445 231.775 313.139 245.078 305.363C267.949 292.235 290.046 277.724 310.795 261.5C311.938 260.6 313.082 259.687 314.213 258.786C310.337 261.944 306.411 265.052 302.434 268.084C270.02 292.666 234.392 313.025 197.823 330.732ZM397.515 92.8102C397.452 92.1506 397.363 91.491 397.274 90.8314C397.668 92.3663 398.011 93.9011 398.29 95.4613C398.062 94.5733 397.782 93.6854 397.515 92.8102ZM395.762 81.8762C395.66 81.5845 395.558 81.2927 395.444 81.0137C395.393 80.7473 395.317 80.4809 395.266 80.2146L395.673 81.1405C395.711 81.3942 395.736 81.6352 395.762 81.8762ZM123.365 76.9293C132.526 70.8788 141.903 65.0821 151.484 59.6151C149.336 60.8708 147.214 62.1519 145.092 63.4331C111.815 83.6394 80.9639 107.676 52.6035 134.314C49.8844 136.787 47.1779 139.286 44.5096 141.81C44.9289 141.404 45.3482 140.986 45.7675 140.58C69.0962 117.976 94.1022 97.1102 120.811 78.6417C121.675 78.0582 122.513 77.4874 123.365 76.9293ZM-76.0093 384.539C-75.9458 384.806 -75.8696 385.072 -75.806 385.339C-75.8696 385.339 -75.9331 385.351 -75.9966 385.351C-75.9966 385.085 -75.9966 384.819 -76.0093 384.539ZM-75.463 386.683C-75.4249 386.861 -75.3741 387.038 -75.3359 387.203C-75.3486 387.596 -75.3486 387.99 -75.3486 388.396C-75.5265 388.408 -75.7044 388.421 -75.895 388.421C-75.9204 387.85 -75.9458 387.279 -75.9585 386.696C-75.7934 386.696 -75.6282 386.683 -75.463 386.683ZM19.2877 485.584C19.4147 485.609 19.5291 485.622 19.6562 485.634C21.5113 486.015 23.3537 486.37 25.2215 486.7C32.0702 487.88 38.9697 488.679 45.8819 489.161C38.2073 488.844 30.5073 488.146 22.8962 486.966C18.4236 486.028 13.9764 484.911 9.59277 483.605C12.7948 484.366 16.0349 485.026 19.2877 485.584ZM283.21 419.485C253.833 435.645 223.172 449.687 191.534 460.887C225.155 448.621 257.645 433.222 288.635 415.401C310.503 402.818 331.773 388.979 352.001 373.783C367.185 362.748 381.823 350.989 395.749 338.457C395.927 338.305 396.092 338.14 396.27 337.975C387.973 345.75 379.409 353.247 370.654 360.464C352.637 375.331 333.577 388.966 313.806 401.499C303.781 407.777 293.578 413.777 283.21 419.485ZM487.094 163.792C487.044 163.463 486.993 163.12 486.942 162.79C486.993 162.384 487.044 161.978 487.094 161.56C487.094 162.308 487.094 163.057 487.094 163.792ZM400.387 122.225C400.577 120.272 400.692 118.319 400.73 116.353C400.87 115.642 401.009 114.932 401.136 114.209C401.314 116.213 401.391 118.217 401.403 120.234C401.124 121.553 400.819 122.872 400.501 124.191C400.463 123.545 400.425 122.885 400.387 122.225ZM399.053 93.7742C398.976 93.3556 398.9 92.9244 398.811 92.5058C398.837 92.5819 398.862 92.6453 398.887 92.7214C398.938 93.0639 399.002 93.4191 399.053 93.7742ZM396.88 84.3878C396.867 84.299 396.867 84.2229 396.854 84.1341C396.905 84.3243 396.969 84.5019 397.032 84.6922C396.969 84.578 396.931 84.4892 396.88 84.3878ZM-19.0726 213.097C-21.474 216.369 -23.8247 219.667 -26.15 223.003C-22.1983 217.13 -18.0941 211.359 -13.8503 205.689C-15.6164 208.137 -17.3572 210.611 -19.0726 213.097ZM-62.5407 298.311C-65.0946 304.234 -67.4199 310.259 -69.4783 316.348C-69.3259 315.473 -69.1607 314.61 -68.9701 313.748C-66.4288 306.074 -63.4937 298.526 -60.3171 291.093C-60.0121 290.37 -59.6691 289.647 -59.3514 288.924C-60.495 292.032 -61.5496 295.165 -62.5407 298.311ZM-72.2991 329.489C-72.4897 331.658 -72.6549 333.827 -72.7565 335.996C-72.7692 336.186 -72.7693 336.364 -72.782 336.554C-73.3665 338.825 -73.9382 341.095 -74.4465 343.378C-74.2305 340.309 -73.9001 337.239 -73.4808 334.195C-73.1123 332.635 -72.7184 331.062 -72.2991 329.489ZM293.375 417.481C279.042 425.675 264.404 433.4 249.5 440.567C261.749 434.567 273.82 428.174 285.675 421.451C288.597 419.84 291.507 418.204 294.391 416.555C317.821 403.186 340.439 388.281 361.861 371.83C360.235 373.111 358.596 374.379 356.957 375.635C336.703 390.945 315.382 404.911 293.375 417.481ZM490.118 169.64C490.106 169.272 490.093 168.891 490.08 168.524C490.017 167.179 489.928 165.835 489.814 164.49C489.991 165.517 490.144 166.545 490.296 167.585C490.271 167.978 490.245 168.371 490.233 168.777C490.182 169.056 490.144 169.348 490.118 169.64ZM486.052 148.964C485.913 149.941 485.747 150.918 485.57 151.894C485.544 150.943 485.544 150.004 485.506 149.053C485.468 148.279 485.417 147.505 485.366 146.744C485.595 147.493 485.824 148.228 486.052 148.964ZM400.997 127.502C400.971 127.35 400.959 127.185 400.933 127.033C401.035 126.678 401.124 126.322 401.225 125.967C401.2 126.284 401.175 126.602 401.149 126.931C401.086 127.122 401.035 127.312 400.997 127.502ZM400.933 105.812C400.946 105.596 400.959 105.38 400.971 105.165C401.035 103.351 401.035 101.537 400.959 99.7486C401.086 100.256 401.2 100.763 401.302 101.271C401.289 103.008 401.213 104.734 401.086 106.471C401.035 106.256 400.984 106.027 400.933 105.812ZM-76.2889 349.416C-76.2635 350.393 -76.2253 351.37 -76.1745 352.346C-76.543 354.503 -76.8734 356.659 -77.1529 358.828C-77.2545 359.653 -77.3435 360.477 -77.4324 361.302C-77.4324 360.959 -77.4452 360.604 -77.4452 360.261C-77.1783 356.634 -76.7845 353.031 -76.2889 349.416ZM489.026 156.055C488.886 155.547 488.746 155.027 488.606 154.52C488.581 152.034 488.467 149.56 488.289 147.074C488.543 148.292 488.784 149.51 488.988 150.753C489.038 152.529 489.051 154.304 489.026 156.055ZM402.636 112.699C402.382 111.786 402.102 110.886 401.823 109.985C401.988 108.831 402.115 107.664 402.242 106.509C402.394 107.575 402.521 108.64 402.623 109.719C402.636 110.708 402.636 111.697 402.636 112.699ZM398.875 83.5886C398.379 82.3456 397.846 81.1152 397.286 79.8975C396.829 78.5275 396.346 77.1576 395.812 75.8131C396.893 78.0202 397.858 80.278 398.722 82.5993C398.773 82.929 398.824 83.2588 398.875 83.5886ZM463.829 266.46C447.921 293.732 427.362 318.136 404.516 339.941C399.967 344.165 395.342 348.3 390.654 352.359C397.21 346.524 403.614 340.512 409.828 334.322C435.177 309.08 458.645 280.058 473.219 247.078C472.19 249.628 471.173 252.165 470.144 254.714C469.928 255.209 469.674 255.704 469.445 256.198C467.654 259.674 465.786 263.099 463.829 266.46ZM484.718 139.02C484.706 138.982 484.706 138.956 484.693 138.918C484.693 138.905 484.693 138.88 484.693 138.867C484.706 138.931 484.718 139.007 484.731 139.07C484.731 139.058 484.718 139.045 484.718 139.02ZM21.4858 453.632C18.0806 453.073 14.6499 452.401 11.2319 451.615C2.61703 449.217 -5.75638 446.034 -13.7486 441.911C-1.48706 447.847 11.8418 451.767 25.3232 454.037C27.8263 454.456 30.3294 454.824 32.8453 455.141C29.0588 454.735 25.2723 454.24 21.4858 453.632ZM397.134 153.416C397.68 152.047 398.201 150.664 398.71 149.281C397.973 153.201 396.982 157.07 395.812 160.824C396.346 158.363 396.778 155.89 397.134 153.416ZM326.08 11.8835C322.078 10.7039 318.012 9.70182 313.908 8.94076C311.405 8.47143 308.889 8.10359 306.36 7.78647C315.75 8.73781 325.039 10.6151 334.098 13.5833C340.744 15.765 347.262 18.7458 353.45 22.3609C344.86 17.6676 335.636 14.1794 326.08 11.8835ZM-105.399 380.924C-98.4359 380.886 -91.4856 380.721 -84.548 380.43C-82.7056 380.354 -80.8504 380.252 -79.008 380.151C-78.9953 380.341 -78.9826 380.518 -78.9699 380.709C-79.44 380.734 -79.8975 380.759 -80.3676 380.785C-97.0382 381.495 -113.849 381.521 -130.621 380.709C-122.209 380.975 -113.798 381.051 -105.399 380.924ZM-95.9074 403.579C-117.8 404.327 -139.757 403.693 -161.561 401.638C-175.741 400.294 -189.921 398.365 -203.936 395.664C-213.834 393.495 -223.656 390.958 -233.351 387.952C-236.286 387.038 -239.196 386.087 -242.106 385.123C-238.573 386.188 -235.028 387.216 -231.458 388.18C-218.18 391.744 -204.711 394.573 -191.141 396.755C-159.769 402.26 -127.813 404.276 -95.9074 403.579ZM483.473 217.879C483.918 216.648 484.337 215.418 484.744 214.175C484.108 217.118 483.397 220.06 482.558 223.003C482.444 223.396 482.317 223.777 482.202 224.17C482.672 222.09 483.092 219.984 483.473 217.879ZM485.455 136.356C485.404 136.115 485.354 135.874 485.303 135.646C485.315 135.671 485.315 135.696 485.328 135.722C485.366 135.925 485.417 136.14 485.455 136.356ZM483.575 152.541C483.105 150.258 482.546 147.987 481.948 145.742C481.923 145.514 481.898 145.298 481.872 145.07C482.533 147.277 483.13 149.421 483.676 151.539C483.638 151.869 483.6 152.199 483.575 152.541ZM480.932 150.106C480.97 150.562 481.021 151.019 481.059 151.476C481.11 152.63 481.148 153.784 481.16 154.939C480.83 152.224 480.398 149.522 479.865 146.833C480.22 147.937 480.576 149.015 480.932 150.106ZM396.041 166.646C398.328 159.835 399.98 152.808 400.73 145.654C400.844 144.499 400.933 143.358 400.997 142.203C401.022 142.127 401.035 142.038 401.06 141.962C400.831 148.52 399.739 155.04 397.998 161.433C397.388 163.196 396.727 164.921 396.041 166.646ZM-65.7046 295.419C-65.73 295.507 -65.7554 295.596 -65.7935 295.672C-65.9587 296.104 -66.1366 296.548 -66.2891 296.979C-66.2764 296.941 -66.2636 296.903 -66.2509 296.865C-66.0731 296.383 -65.8824 295.901 -65.7046 295.419ZM-89.8719 385.237C-86.1108 385.06 -82.3498 384.844 -78.5887 384.603C-78.5506 384.895 -78.5252 385.186 -78.4998 385.491C-79.3638 385.529 -80.2405 385.592 -81.1046 385.618C-98.9442 386.379 -116.936 386.366 -134.865 385.377C-119.871 385.985 -104.853 385.922 -89.8719 385.237ZM-77.9915 391.554C-95.0433 392.366 -112.121 392.417 -129.172 391.706C-125.335 391.808 -121.498 391.884 -117.66 391.896C-104.446 391.96 -91.2314 391.529 -78.0551 390.679C-78.0296 390.97 -78.0042 391.262 -77.9915 391.554ZM-89.5797 399.659C-102.781 400.281 -115.907 400.192 -129.096 399.811C-144.267 399.38 -159.286 398.404 -174.356 396.552C-182.45 395.55 -190.506 394.332 -198.523 392.899C-207.723 391.123 -216.833 389.017 -225.791 386.531C-235.333 383.88 -244.774 380.912 -254.088 377.576C-249.501 379.187 -244.876 380.721 -240.212 382.142C-191.217 397.11 -139.401 401.638 -88.3599 399.596C-88.7664 399.621 -89.173 399.647 -89.5797 399.659ZM-241.75 393.507C-241.051 393.723 -240.352 393.913 -239.653 394.116C-238.675 394.421 -237.697 394.75 -236.706 395.042C-187.329 410.061 -135.106 414.5 -83.6966 412.293C-80.609 412.166 -77.5214 412.001 -74.4337 411.824C-74.3575 412.128 -74.2686 412.42 -74.1924 412.724C-77.191 412.902 -80.1897 413.067 -83.1884 413.194C-130.341 415.312 -178.485 412.027 -224.164 399.583C-245.879 393.672 -267.086 385.986 -287.251 376.028C-272.537 382.967 -257.302 388.776 -241.75 393.507ZM84.8647 497.964C55.3353 500.374 23.8365 499.004 -4.02835 487.854C-1.29651 488.805 1.46075 489.693 4.24344 490.48C10.0248 492.344 15.9205 493.854 21.9052 495.021C63.9756 503.177 108.143 496.936 149.197 486.319C163.72 482.565 178.065 478.138 192.233 473.14C186.235 475.309 180.213 477.377 174.152 479.343C167.074 481.626 159.908 483.782 152.691 485.787C130.442 491.71 107.799 496.086 84.8647 497.964ZM484.045 130.141C484.032 130.141 484.019 130.141 484.019 130.141L483.994 129.938C484.019 130.001 484.032 130.064 484.045 130.141ZM482.825 144.778C482.279 143.053 481.694 141.29 481.11 139.489C480.995 138.817 480.868 138.157 480.741 137.485C480.995 138.284 481.262 139.096 481.516 139.895C482.025 141.518 482.457 143.142 482.825 144.778ZM291.278 380.62C333.323 356.405 373.272 327.536 407.655 293.224C435.177 265.762 460.742 233.595 474.642 196.835C473.943 199.055 473.206 201.262 472.419 203.431C467.565 215.393 461.479 226.91 454.541 237.73C446.282 250.617 437.057 262.858 427.07 274.489C412.674 290.675 396.829 305.617 380.273 319.506C347.236 347.209 310.833 371.233 272.612 391.173C267.327 393.939 262.003 396.615 256.641 399.241C268.394 393.368 279.944 387.152 291.278 380.62ZM401.899 147.252C402.089 144.309 402.115 141.392 402 138.474C402.687 135.658 403.233 132.817 403.652 129.95C403.64 135.785 403.017 141.569 401.899 147.252ZM-65.3615 287.136C-59.5039 270.037 -51.5752 253.725 -42.7189 237.984C-23.7993 204.357 0.749207 173.762 27.3815 145.958C59.719 112.192 96.1097 82.0538 135.779 57.2177C151.204 47.5648 167.125 38.7872 183.58 31.0117C188.497 28.6904 193.503 26.4706 198.56 24.365C179.755 32.3689 161.623 41.9583 144.178 52.5752C104.204 76.9039 67.4698 106.712 34.7512 140.11C25.9839 149.053 17.458 158.313 9.237 167.877C-0.114807 178.557 -9.06003 189.618 -17.3953 201.085C-31.0291 219.832 -43.5067 239.43 -53.6336 260.308C-57.3693 268.008 -60.8762 275.999 -63.9638 284.18C-64.8278 286.299 -65.6664 288.417 -66.4796 290.561C-66.1112 289.406 -65.7427 288.265 -65.3615 287.136ZM-300.173 344.583C-281.927 354.16 -262.664 361.999 -242.906 367.897C-233.097 370.828 -223.186 373.352 -213.212 375.534C-170.353 385.846 -125.818 388.878 -81.8542 387C-80.6725 386.949 -79.5036 386.886 -78.3219 386.823C-78.2965 387 -78.2711 387.178 -78.2456 387.355C-78.2202 387.761 -78.2076 388.155 -78.1821 388.56C-123.34 391.009 -169.324 388.573 -213.351 378.032C-221.471 376.092 -229.552 373.973 -237.544 371.538C-245.447 369.217 -253.211 366.464 -260.809 363.293C-268.535 360.566 -276.082 357.408 -283.452 353.818C-287.111 351.991 -290.771 350.165 -294.417 348.338C-301.164 344.888 -307.683 341.045 -313.985 336.833C-309.474 339.522 -304.862 342.123 -300.173 344.583ZM-172.615 387.812C-189.222 385.389 -205.817 382.345 -222.004 377.893C-241.839 372.451 -261.267 365.589 -279.843 356.748C-288.255 352.752 -296.374 348.389 -304.29 343.67C-286.832 353.653 -268.37 361.847 -249.348 368.379C-200.759 385.085 -148.88 390.97 -97.6609 389.981C-91.1552 389.854 -84.6496 389.613 -78.144 389.271C-78.1313 389.474 -78.1186 389.677 -78.1059 389.892C-107.457 391.82 -137.076 391.643 -166.351 388.649C-168.435 388.37 -170.531 388.116 -172.615 387.812ZM-122.171 392.797C-149.21 392.214 -176.186 389.575 -202.907 384.375C-208.803 383.233 -214.66 381.901 -220.48 380.455C-201.979 384.78 -183.174 387.761 -164.242 389.588C-150.29 391.275 -136.25 392.328 -122.171 392.797ZM-306.349 347.108C-307.416 346.473 -308.483 345.852 -309.538 345.205C-308.153 346.03 -306.755 346.841 -305.357 347.64C-305.675 347.463 -306.018 347.285 -306.349 347.108ZM-278.814 361.543C-271.178 364.79 -263.427 367.733 -255.574 370.409C-214.063 385.339 -169.883 392.176 -125.881 393.482C-109.872 393.951 -93.8617 393.698 -77.8772 392.784C-77.8391 393.254 -77.7882 393.736 -77.7374 394.205C-90.7994 395.093 -103.823 395.321 -116.924 395.258C-122.984 395.232 -129.02 395.118 -135.043 394.915C-167.177 393.19 -199.12 388.332 -229.984 379.504C-246.693 374.722 -263.046 368.785 -278.814 361.543ZM-123.861 396.717C-114.586 396.996 -105.31 397.046 -96.0598 396.869C-89.8719 396.755 -83.6839 396.526 -77.496 396.222C-77.4706 396.476 -77.4325 396.742 -77.407 396.996C-80.5455 397.186 -83.6712 397.363 -86.8097 397.503C-134.026 399.71 -182.081 395.905 -227.811 383.652C-230.543 382.916 -233.262 382.155 -235.969 381.356C-199.54 391.541 -161.675 396.12 -123.861 396.717ZM-49.161 460.063C-51.9182 456.968 -54.4849 453.632 -56.8229 450.118C-55.1838 452.388 -53.4557 454.596 -51.6387 456.714C-49.0721 459.682 -46.3529 462.447 -43.494 465.048C-40.3683 468.409 -37.0138 471.491 -33.4942 474.345C-39.1612 470.121 -44.4088 465.377 -49.161 460.063ZM488.937 207.782C489.382 203.736 489.623 199.677 489.674 195.592C490.017 193.867 490.334 192.129 490.601 190.392C490.881 188.616 491.122 186.84 491.326 185.064C491.249 190.912 490.754 196.734 489.852 202.518C489.597 204.281 489.28 206.031 488.937 207.782Z" fill="white"/>
</svg>
