<svg width="24" height="24" viewBox="0 0 24 24" fill="none" xmlns="http://www.w3.org/2000/svg">
<path d="M5 6C3.9 6 3 6.9 3 8C3 9.1 3.9 10 5 10C6.1 10 7 9.1 7 8C7 6.9 6.1 6 5 6Z" stroke="white" stroke-width="2"/>
<path d="M19 6C17.9 6 17 6.9 17 8C17 9.1 17.9 10 19 10C20.1 10 21 9.1 21 8C21 6.9 20.1 6 19 6Z" stroke="white" stroke-width="2"/>
<path d="M12 6C10.9 6 10 6.9 10 8C10 9.1 10.9 10 12 10C13.1 10 14 9.1 14 8C14 6.9 13.1 6 12 6Z" stroke="white" stroke-width="2"/>
<path d="M5 15C3.9 15 3 15.9 3 17C3 18.1 3.9 19 5 19C6.1 19 7 18.1 7 17C7 15.9 6.1 15 5 15Z" stroke="white" stroke-width="2"/>
<path d="M19 15C17.9 15 17 15.9 17 17C17 18.1 17.9 19 19 19C20.1 19 21 18.1 21 17C21 15.9 20.1 15 19 15Z" stroke="white" stroke-width="2"/>
<path d="M12 15C10.9 15 10 15.9 10 17C10 18.1 10.9 19 12 19C13.1 19 14 18.1 14 17C14 15.9 13.1 15 12 15Z" stroke="white" stroke-width="2"/>
</svg>
